<svg width="56" height="56" viewBox="0 0 56 56" fill="none" xmlns="http://www.w3.org/2000/svg">
<path d="M47.5461 47.2777V40.2933C47.5461 38.3377 47.2667 36.3821 46.1492 34.4264C45.0317 32.4708 43.6348 30.7946 41.6792 29.6771C39.7236 28.2802 35.533 28.0008 33.5773 28.0008L29.1073 32.7502L30.7836 36.382V44.7633L27.9898 47.8364L25.1961 44.7633V36.382L27.1517 32.7502L22.4023 28.0008C20.1673 28.0008 15.9767 28.2802 14.0211 29.6771C12.0655 30.7946 10.948 32.4708 9.83047 34.4264C8.71297 36.3821 8.43359 38.0583 8.43359 40.2933V47.2777C8.43359 47.2777 15.6973 50.3508 27.9898 50.3508C40.2823 50.3508 47.5461 47.2777 47.5461 47.2777ZM27.9898 5.93018C22.6817 5.93018 19.6086 10.9589 20.4467 16.5464C21.2848 22.1339 24.0786 26.0452 27.9898 26.0452C31.9011 26.0452 34.6948 22.1339 35.533 16.5464C36.3711 10.6796 33.298 5.93018 27.9898 5.93018Z" fill="#00681D"/>
</svg>
