<svg width="328" height="323" viewBox="0 0 328 323" fill="none" xmlns="http://www.w3.org/2000/svg">
<path d="M60.2637 233.852C58.4853 233.852 57.1149 233.392 56.1237 232.502C55.1324 231.583 54.6367 230.349 54.6367 228.741C54.6367 227.133 55.1324 225.841 56.1237 224.951C57.1149 224.061 58.4853 223.659 60.2637 223.659C62.0422 223.659 63.4709 224.119 64.433 224.951C65.3951 225.841 65.8908 227.076 65.8908 228.741C65.8908 230.406 65.3951 231.583 64.433 232.502C63.4709 233.421 62.0714 233.852 60.2637 233.852ZM60.2637 279.962C58.7477 279.962 57.5814 279.502 56.7651 278.584C55.9487 277.665 55.5697 276.373 55.5697 274.708V246.312C55.5697 244.618 55.9779 243.298 56.7651 242.408C57.5523 241.517 58.7477 241.058 60.2637 241.058C61.7798 241.058 62.946 241.517 63.7916 242.408C64.6371 243.298 65.0452 244.618 65.0452 246.312V274.708C65.0452 276.373 64.6371 277.665 63.8499 278.584C63.0627 279.502 61.8381 279.962 60.2929 279.962H60.2637Z" fill="#00681D"/>
<path d="M78.3972 262.534C77.2893 262.534 76.3563 262.161 75.6274 261.415C74.8986 260.668 74.5195 259.749 74.5195 258.658C74.5195 257.567 74.8986 256.591 75.6274 255.873C76.3563 255.156 77.2893 254.811 78.3972 254.811H94.5786C95.6282 254.811 96.532 255.184 97.2609 255.873C97.9898 256.591 98.3688 257.539 98.3688 258.658C98.3688 259.778 97.9898 260.668 97.2609 261.415C96.532 262.161 95.6282 262.534 94.5786 262.534H78.3972Z" fill="#00681D"/>
<path d="M112.569 280.019C111.053 280.019 109.887 279.589 109.07 278.756C108.254 277.923 107.875 276.689 107.875 275.081V229.143C107.875 227.535 108.283 226.329 109.07 225.497C109.858 224.664 111.053 224.262 112.569 224.262C114.085 224.262 115.251 224.664 116.097 225.497C116.942 226.329 117.351 227.535 117.351 229.143V257.682H117.496L130.033 244.216C131.054 243.183 131.928 242.379 132.686 241.805C133.444 241.23 134.494 240.972 135.806 240.972C137.118 240.972 138.109 241.317 138.809 242.006C139.509 242.695 139.829 243.556 139.829 244.532C139.829 245.508 139.363 246.513 138.459 247.489L125.252 261.73V257.711L139.771 273.645C140.675 274.621 141.112 275.626 141.025 276.631C140.937 277.636 140.529 278.469 139.771 279.1C139.013 279.732 138.051 280.048 136.885 280.048C135.485 280.048 134.348 279.761 133.503 279.215C132.657 278.67 131.753 277.78 130.733 276.66L117.525 262.592H117.38V275.138C117.38 278.44 115.776 280.077 112.598 280.077V280.019H112.569Z" fill="#00681D"/>
<path d="M161.986 280.163C158.896 280.163 156.33 279.589 154.319 278.44C152.278 277.292 150.791 275.541 149.799 273.215C148.808 270.889 148.312 268.018 148.312 264.544V245.825C148.312 244.159 148.721 242.953 149.508 242.15C150.324 241.346 151.49 240.944 153.007 240.944C154.523 240.944 155.689 241.346 156.534 242.15C157.38 242.953 157.788 244.159 157.788 245.825V264.688C157.788 267.358 158.313 269.339 159.392 270.631C160.47 271.923 162.132 272.555 164.494 272.555C167.03 272.555 169.1 271.665 170.733 269.884C172.337 268.104 173.182 265.75 173.182 262.793V245.767C173.182 244.102 173.59 242.896 174.378 242.092C175.194 241.288 176.36 240.886 177.876 240.886C179.392 240.886 180.588 241.288 181.404 242.092C182.25 242.896 182.658 244.102 182.658 245.767V274.995C182.658 278.297 181.113 279.933 178.022 279.933C176.535 279.933 175.427 279.503 174.611 278.67C173.794 277.837 173.415 276.603 173.415 274.995V269.138L174.465 271.464C173.415 274.249 171.783 276.402 169.654 277.866C167.497 279.359 164.96 280.106 162.045 280.106L161.986 280.163Z" fill="#00681D"/>
<path d="M197.237 280.019C195.721 280.019 194.555 279.589 193.738 278.756C192.922 277.923 192.543 276.689 192.543 275.081V229.143C192.543 227.535 192.951 226.329 193.738 225.497C194.526 224.664 195.721 224.262 197.237 224.262C198.753 224.262 199.919 224.664 200.765 225.497C201.61 226.329 202.019 227.535 202.019 229.143V257.682H202.164L214.701 244.216C215.722 243.183 216.596 242.379 217.354 241.805C218.112 241.23 219.162 240.972 220.474 240.972C221.786 240.972 222.777 241.317 223.477 242.006C224.177 242.695 224.497 243.556 224.497 244.532C224.497 245.508 224.031 246.513 223.127 247.489L209.92 261.73V257.711L224.439 273.645C225.343 274.621 225.751 275.626 225.693 276.631C225.605 277.636 225.197 278.469 224.439 279.1C223.681 279.732 222.719 280.048 221.553 280.048C220.153 280.048 219.016 279.761 218.171 279.215C217.325 278.67 216.421 277.78 215.401 276.66L202.193 262.592H202.048V275.138C202.048 278.44 200.444 280.077 197.266 280.077V280.019H197.237Z" fill="#00681D"/>
<path d="M246.654 280.163C243.564 280.163 240.998 279.589 238.987 278.44C236.946 277.292 235.459 275.541 234.467 273.215C233.476 270.889 232.98 268.018 232.98 264.544V245.825C232.98 244.159 233.389 242.953 234.176 242.15C234.992 241.346 236.158 240.944 237.674 240.944C239.191 240.944 240.357 241.346 241.202 242.15C242.048 242.953 242.456 244.159 242.456 245.825V264.688C242.456 267.358 242.981 269.339 244.06 270.631C245.109 271.923 246.8 272.555 249.162 272.555C251.698 272.555 253.768 271.665 255.401 269.884C257.005 268.104 257.85 265.75 257.85 262.793V245.767C257.85 244.102 258.258 242.896 259.046 242.092C259.862 241.288 261.028 240.886 262.544 240.886C264.06 240.886 265.256 241.288 266.072 242.092C266.918 242.896 267.326 244.102 267.326 245.767V274.995C267.326 278.297 265.78 279.933 262.69 279.933C261.203 279.933 260.095 279.503 259.279 278.67C258.462 277.837 258.083 276.603 258.083 274.995V269.138L259.133 271.464C258.083 274.249 256.451 276.402 254.322 277.866C252.194 279.33 249.628 280.106 246.713 280.106L246.654 280.163Z" fill="#00681D"/>
<path d="M164 218.807C220.068 218.807 265.52 174.768 265.52 120.443C265.52 66.1178 220.068 22.0786 164 22.0786C107.932 22.0786 62.4805 66.1178 62.4805 120.443C62.4805 174.768 107.932 218.807 164 218.807Z" fill="#00681D"/>
<path d="M224.788 151.968C222.105 148.465 218.782 145.565 214.817 143.469C210.152 140.972 205.137 139.794 199.889 139.192C190.501 138.1 181.433 139.077 172.599 142.264C163.415 145.594 156.01 151.078 151.432 159.835C149.129 164.228 148.225 168.965 147.555 174.363C146.826 166.783 148.05 160.093 151.432 153.978C154.931 147.633 158.984 141.575 162.745 135.373C165.485 130.865 168.168 126.329 170.85 121.793C171.433 120.816 171.841 119.725 172.483 118.319C173.212 125.927 171.841 132.732 169.217 139.421C190.005 120.845 186.886 81.6544 154.115 68.2463C168.897 67.2989 180.471 55.8144 181.433 49.498C180.267 49.6415 179.159 49.7851 178.022 49.9287C181.55 47.0001 184.436 43.8419 185.457 39.3055C186.448 34.9415 185.719 30.8071 184.145 26.6152C180.005 34.5682 173.328 39.7936 165.66 44.8755C166.593 42.6647 167.41 40.9995 167.993 39.2481C168.605 37.3819 169.071 35.4295 169.421 33.5059C169.771 31.7545 169.917 29.9744 169.276 28.1656C165.631 36.2622 158.809 39.9085 150.324 42.1192C151.928 38.5016 153.182 35.1999 153.211 31.4387C152.774 31.6971 152.395 31.7832 152.278 31.9842C149.217 37.6116 144.493 41.8034 139.449 45.622C136.097 48.1773 132.627 50.5603 129.216 53.0007C124.405 56.4174 121.227 60.7815 121.023 66.8395C120.965 68.4473 120.936 70.0839 120.877 71.8927C119.128 72.754 117.233 73.7015 115.367 74.6202C113.53 75.539 111.693 76.4577 109.273 77.6636C110.935 78.2091 111.897 78.4675 112.801 78.812C114.463 79.4724 116.212 80.0179 117.758 80.908C120.702 82.5732 122.393 85.0998 121.869 88.5164C121.548 90.5262 121.081 92.6221 120.148 94.4309C118.37 97.8762 116.3 101.149 114.23 104.451C112.451 107.293 111.314 110.193 111.343 113.639C111.402 119.869 117.35 126.846 125.513 126.53C132.889 126.214 138.137 121.017 138.371 113.495C138.546 108.384 137.204 103.504 136.213 98.5366C135.339 94.0863 134.376 89.5787 134.114 85.0711C133.822 80.1615 138.4 76.8597 143.269 77.8933C149.158 79.1853 152.978 82.9464 155.456 88.0857C158.08 93.627 157.992 99.3979 156.418 105.226C154.377 112.691 150.062 118.893 144.843 124.491C138.546 131.239 133.094 138.56 128.574 146.57C124.872 153.174 123.356 160.208 124.668 167.759C126.067 175.913 129.916 182.89 134.843 189.379C141.782 198.509 150.441 205.887 159.567 212.778C160.237 213.266 160.937 213.697 161.637 214.156C160.296 211.228 158.575 208.672 157.234 205.916C154.873 201.093 153.823 196.04 155.106 190.642C156.535 184.727 160.121 180.306 164.931 176.832C173.853 170.4 183.912 167.415 194.962 168.132C197.498 168.305 200.093 169.166 202.425 170.228C205.924 171.865 207.294 175.167 206.624 178.899C206.507 179.645 206.449 180.392 206.332 181.598C214.408 178.21 218.578 172.41 220.006 164.17C221.464 169.108 220.968 173.731 219.394 178.181C216.303 186.852 209.773 192.278 201.113 195.781C201.697 196.04 201.871 196.183 202.017 196.183C210.764 195.149 218.199 191.532 223.884 184.842C232.077 175.224 232.397 161.816 224.759 151.882H224.729L224.788 151.968ZM116.125 108.758C117.116 113.926 118.982 118.003 123.093 121.419C117.787 119.467 115.6 115.505 116.125 108.758Z" fill="#F9B420"/>
<path d="M134.93 130.291C124.171 140.828 119.448 153.605 121.227 168.305C123.034 183.091 130.965 194.26 144.201 201.983C133.064 201.753 118.369 185.216 115.891 171.176C112.538 152.112 124.084 135 134.93 130.263V130.291Z" fill="#F9B420"/>
<path d="M228.579 152.887C226.771 150.906 225.051 148.867 223.127 147.001C216.858 140.857 209.103 137.957 200.444 137.182C193.826 136.579 187.236 136.981 180.706 138.273C180.152 138.388 179.539 138.273 178.781 138.273C195.342 126.559 221.552 135.057 228.579 152.887Z" fill="#F9B420"/>
<path d="M145.629 82.1718C148.778 83.2341 150.294 85.1003 151.49 87.3111C153.968 91.8761 154.084 96.8719 153.443 101.781C152.627 108.155 150.323 114.041 146.3 119.18C145.542 120.157 144.609 121.018 143.297 121.592C143.705 120.731 144.055 119.869 144.492 119.037C146.854 114.529 148.778 109.878 149.769 104.882C151.227 97.4461 150.644 90.3257 146.358 83.7796C146.154 83.4638 146.037 83.0618 145.6 82.1431L145.629 82.1718Z" fill="#F9B420"/>
<path d="M174.668 175.77C161.432 182.718 157.438 195.925 164.172 208.328C159.712 205.486 157.321 197.131 158.983 190.211C160.615 183.435 167.001 176.487 174.668 175.77Z" fill="#F9B420"/>
<path d="M71.9059 295C71.7593 295 71.6459 294.963 71.5659 294.89C71.4926 294.81 71.4559 294.697 71.4559 294.55V288.4C71.4559 288.253 71.4926 288.143 71.5659 288.07C71.6459 287.99 71.7593 287.95 71.9059 287.95H74.2759C74.7626 287.95 75.1726 288.023 75.5059 288.17C75.8459 288.31 76.1059 288.517 76.2859 288.79C76.4659 289.063 76.5559 289.397 76.5559 289.79C76.5559 290.23 76.4259 290.597 76.1659 290.89C75.9126 291.183 75.5659 291.377 75.1259 291.47V291.33C75.6259 291.39 76.0159 291.57 76.2959 291.87C76.5826 292.17 76.7259 292.567 76.7259 293.06C76.7259 293.687 76.5226 294.167 76.1159 294.5C75.7093 294.833 75.1359 295 74.3959 295H71.9059ZM72.2559 294.34H74.3159C74.8493 294.34 75.2493 294.233 75.5159 294.02C75.7826 293.807 75.9159 293.483 75.9159 293.05C75.9159 292.61 75.7826 292.287 75.5159 292.08C75.2493 291.867 74.8493 291.76 74.3159 291.76H72.2559V294.34ZM72.2559 291.1H74.1559C74.6759 291.1 75.0693 290.993 75.3359 290.78C75.6093 290.567 75.7459 290.26 75.7459 289.86C75.7459 289.447 75.6093 289.137 75.3359 288.93C75.0693 288.717 74.6759 288.61 74.1559 288.61H72.2559V291.1ZM78.5138 295.07C78.3804 295.07 78.2771 295.033 78.2038 294.96C78.1371 294.887 78.1038 294.783 78.1038 294.65V290.48C78.1038 290.347 78.1371 290.247 78.2038 290.18C78.2704 290.107 78.3671 290.07 78.4938 290.07C78.6204 290.07 78.7171 290.107 78.7838 290.18C78.8571 290.247 78.8938 290.347 78.8938 290.48V291.29H78.7938C78.9004 290.897 79.1038 290.593 79.4038 290.38C79.7038 290.167 80.0738 290.053 80.5138 290.04C80.6138 290.033 80.6938 290.057 80.7538 290.11C80.8138 290.157 80.8471 290.24 80.8538 290.36C80.8604 290.473 80.8338 290.563 80.7738 290.63C80.7138 290.697 80.6204 290.737 80.4938 290.75L80.3338 290.77C79.8804 290.81 79.5304 290.957 79.2838 291.21C79.0438 291.457 78.9238 291.797 78.9238 292.23V294.65C78.9238 294.783 78.8871 294.887 78.8137 294.96C78.7471 295.033 78.6471 295.07 78.5138 295.07ZM82.0877 295.05C81.9544 295.05 81.8544 295.013 81.7877 294.94C81.7211 294.86 81.6877 294.75 81.6877 294.61V290.52C81.6877 290.38 81.7211 290.273 81.7877 290.2C81.8544 290.127 81.9544 290.09 82.0877 290.09C82.2144 290.09 82.3144 290.127 82.3877 290.2C82.4611 290.273 82.4977 290.38 82.4977 290.52V294.61C82.4977 294.75 82.4611 294.86 82.3877 294.94C82.3211 295.013 82.2211 295.05 82.0877 295.05ZM82.0877 288.97C81.9211 288.97 81.7911 288.927 81.6977 288.84C81.6044 288.747 81.5577 288.623 81.5577 288.47C81.5577 288.31 81.6044 288.19 81.6977 288.11C81.7911 288.023 81.9211 287.98 82.0877 287.98C82.2611 287.98 82.3911 288.023 82.4777 288.11C82.5711 288.19 82.6177 288.31 82.6177 288.47C82.6177 288.623 82.5711 288.747 82.4777 288.84C82.3911 288.927 82.2611 288.97 82.0877 288.97ZM85.862 295.09C85.4286 295.09 85.0486 294.987 84.722 294.78C84.402 294.573 84.152 294.283 83.972 293.91C83.7986 293.53 83.712 293.083 83.712 292.57C83.712 292.05 83.7986 291.603 83.972 291.23C84.152 290.85 84.402 290.56 84.722 290.36C85.0486 290.153 85.4286 290.05 85.862 290.05C86.302 290.05 86.6786 290.16 86.992 290.38C87.3053 290.6 87.5153 290.897 87.622 291.27H87.512V288.29C87.512 288.157 87.5453 288.057 87.612 287.99C87.6853 287.917 87.7886 287.88 87.922 287.88C88.0486 287.88 88.1453 287.917 88.212 287.99C88.2853 288.057 88.322 288.157 88.322 288.29V294.65C88.322 294.783 88.2886 294.887 88.222 294.96C88.1553 295.033 88.0553 295.07 87.922 295.07C87.7953 295.07 87.6953 295.033 87.622 294.96C87.5553 294.887 87.522 294.783 87.522 294.65V293.7L87.632 293.84C87.5253 294.22 87.312 294.523 86.992 294.75C86.6786 294.977 86.302 295.09 85.862 295.09ZM86.032 294.44C86.332 294.44 86.5953 294.367 86.822 294.22C87.0486 294.073 87.222 293.86 87.342 293.58C87.4686 293.3 87.532 292.963 87.532 292.57C87.532 291.963 87.3953 291.5 87.122 291.18C86.8553 290.86 86.492 290.7 86.032 290.7C85.7253 290.7 85.4586 290.773 85.232 290.92C85.012 291.06 84.8386 291.27 84.712 291.55C84.592 291.823 84.532 292.163 84.532 292.57C84.532 293.17 84.6686 293.633 84.942 293.96C85.2153 294.28 85.5786 294.44 86.032 294.44ZM91.992 296.89C91.6387 296.89 91.292 296.847 90.952 296.76C90.6187 296.68 90.3154 296.55 90.042 296.37C89.962 296.323 89.9087 296.267 89.882 296.2C89.862 296.133 89.8587 296.067 89.872 296C89.8854 295.94 89.9154 295.883 89.962 295.83C90.0087 295.783 90.062 295.753 90.122 295.74C90.1887 295.727 90.2554 295.737 90.322 295.77C90.6154 295.95 90.8954 296.073 91.162 296.14C91.4287 296.207 91.692 296.24 91.952 296.24C92.4254 296.24 92.782 296.113 93.022 295.86C93.2687 295.607 93.392 295.24 93.392 294.76V293.63H93.492C93.392 294.017 93.1787 294.323 92.852 294.55C92.532 294.777 92.1554 294.89 91.722 294.89C91.2754 294.89 90.8887 294.79 90.562 294.59C90.2354 294.383 89.982 294.097 89.802 293.73C89.6287 293.363 89.542 292.94 89.542 292.46C89.542 292.1 89.592 291.773 89.692 291.48C89.792 291.18 89.9354 290.927 90.122 290.72C90.3154 290.507 90.5454 290.343 90.812 290.23C91.0854 290.11 91.3887 290.05 91.722 290.05C92.162 290.05 92.542 290.163 92.862 290.39C93.182 290.61 93.3887 290.91 93.482 291.29L93.382 291.41V290.48C93.382 290.347 93.4154 290.247 93.482 290.18C93.5554 290.107 93.6554 290.07 93.782 290.07C93.9154 290.07 94.0154 290.107 94.082 290.18C94.1487 290.247 94.182 290.347 94.182 290.48V294.65C94.182 295.39 93.9954 295.947 93.622 296.32C93.2554 296.7 92.712 296.89 91.992 296.89ZM91.872 294.23C92.1854 294.23 92.4554 294.16 92.682 294.02C92.9087 293.873 93.082 293.667 93.202 293.4C93.3287 293.133 93.392 292.82 93.392 292.46C93.392 291.92 93.2554 291.493 92.982 291.18C92.7087 290.86 92.3387 290.7 91.872 290.7C91.5654 290.7 91.2987 290.773 91.072 290.92C90.8454 291.06 90.6687 291.263 90.542 291.53C90.422 291.79 90.362 292.1 90.362 292.46C90.362 293 90.4987 293.43 90.772 293.75C91.0454 294.07 91.412 294.23 91.872 294.23ZM96.1014 295.05C95.9681 295.05 95.8681 295.013 95.8014 294.94C95.7347 294.86 95.7014 294.75 95.7014 294.61V290.52C95.7014 290.38 95.7347 290.273 95.8014 290.2C95.8681 290.127 95.9681 290.09 96.1014 290.09C96.2281 290.09 96.3281 290.127 96.4014 290.2C96.4747 290.273 96.5114 290.38 96.5114 290.52V294.61C96.5114 294.75 96.4747 294.86 96.4014 294.94C96.3347 295.013 96.2347 295.05 96.1014 295.05ZM96.1014 288.97C95.9347 288.97 95.8047 288.927 95.7114 288.84C95.6181 288.747 95.5714 288.623 95.5714 288.47C95.5714 288.31 95.6181 288.19 95.7114 288.11C95.8047 288.023 95.9347 287.98 96.1014 287.98C96.2747 287.98 96.4047 288.023 96.4914 288.11C96.5847 288.19 96.6314 288.31 96.6314 288.47C96.6314 288.623 96.5847 288.747 96.4914 288.84C96.4047 288.927 96.2747 288.97 96.1014 288.97ZM98.4256 295.07C98.2923 295.07 98.1923 295.033 98.1256 294.96C98.059 294.887 98.0256 294.783 98.0256 294.65V290.48C98.0256 290.347 98.059 290.247 98.1256 290.18C98.1923 290.107 98.289 290.07 98.4156 290.07C98.5423 290.07 98.639 290.107 98.7056 290.18C98.779 290.247 98.8156 290.347 98.8156 290.48V291.34L98.7056 291.22C98.8456 290.833 99.0723 290.543 99.3856 290.35C99.7056 290.15 100.072 290.05 100.486 290.05C100.872 290.05 101.192 290.12 101.446 290.26C101.706 290.4 101.899 290.613 102.026 290.9C102.152 291.18 102.216 291.537 102.216 291.97V294.65C102.216 294.783 102.179 294.887 102.106 294.96C102.039 295.033 101.942 295.07 101.816 295.07C101.682 295.07 101.579 295.033 101.506 294.96C101.439 294.887 101.406 294.783 101.406 294.65V292.02C101.406 291.567 101.316 291.237 101.136 291.03C100.962 290.817 100.682 290.71 100.296 290.71C99.849 290.71 99.4923 290.85 99.2256 291.13C98.9656 291.403 98.8356 291.77 98.8356 292.23V294.65C98.8356 294.93 98.699 295.07 98.4256 295.07ZM105.859 296.89C105.506 296.89 105.159 296.847 104.819 296.76C104.486 296.68 104.183 296.55 103.909 296.37C103.829 296.323 103.776 296.267 103.749 296.2C103.729 296.133 103.726 296.067 103.739 296C103.753 295.94 103.783 295.883 103.829 295.83C103.876 295.783 103.929 295.753 103.989 295.74C104.056 295.727 104.123 295.737 104.189 295.77C104.483 295.95 104.763 296.073 105.029 296.14C105.296 296.207 105.559 296.24 105.819 296.24C106.293 296.24 106.649 296.113 106.889 295.86C107.136 295.607 107.259 295.24 107.259 294.76V293.63H107.359C107.259 294.017 107.046 294.323 106.719 294.55C106.399 294.777 106.023 294.89 105.589 294.89C105.143 294.89 104.756 294.79 104.429 294.59C104.103 294.383 103.849 294.097 103.669 293.73C103.496 293.363 103.409 292.94 103.409 292.46C103.409 292.1 103.459 291.773 103.559 291.48C103.659 291.18 103.803 290.927 103.989 290.72C104.183 290.507 104.413 290.343 104.679 290.23C104.953 290.11 105.256 290.05 105.589 290.05C106.029 290.05 106.409 290.163 106.729 290.39C107.049 290.61 107.256 290.91 107.349 291.29L107.249 291.41V290.48C107.249 290.347 107.283 290.247 107.349 290.18C107.423 290.107 107.523 290.07 107.649 290.07C107.783 290.07 107.883 290.107 107.949 290.18C108.016 290.247 108.049 290.347 108.049 290.48V294.65C108.049 295.39 107.863 295.947 107.489 296.32C107.123 296.7 106.579 296.89 105.859 296.89ZM105.739 294.23C106.053 294.23 106.323 294.16 106.549 294.02C106.776 293.873 106.949 293.667 107.069 293.4C107.196 293.133 107.259 292.82 107.259 292.46C107.259 291.92 107.123 291.493 106.849 291.18C106.576 290.86 106.206 290.7 105.739 290.7C105.433 290.7 105.166 290.773 104.939 290.92C104.713 291.06 104.536 291.263 104.409 291.53C104.289 291.79 104.229 292.1 104.229 292.46C104.229 293 104.366 293.43 104.639 293.75C104.913 294.07 105.279 294.23 105.739 294.23ZM114.097 295.09C113.717 295.09 113.397 295.023 113.137 294.89C112.883 294.75 112.693 294.55 112.567 294.29C112.44 294.023 112.377 293.7 112.377 293.32V290.77H111.707C111.593 290.77 111.507 290.743 111.447 290.69C111.387 290.63 111.357 290.55 111.357 290.45C111.357 290.35 111.387 290.273 111.447 290.22C111.507 290.167 111.593 290.14 111.707 290.14H112.377V288.99C112.377 288.857 112.413 288.757 112.487 288.69C112.56 288.617 112.66 288.58 112.787 288.58C112.913 288.58 113.01 288.617 113.077 288.69C113.15 288.757 113.187 288.857 113.187 288.99V290.14H114.447C114.56 290.14 114.647 290.167 114.707 290.22C114.767 290.273 114.797 290.35 114.797 290.45C114.797 290.55 114.767 290.63 114.707 290.69C114.647 290.743 114.56 290.77 114.447 290.77H113.187V293.24C113.187 293.62 113.267 293.91 113.427 294.11C113.587 294.303 113.847 294.4 114.207 294.4C114.333 294.4 114.44 294.387 114.527 294.36C114.62 294.333 114.697 294.32 114.757 294.32C114.817 294.313 114.867 294.333 114.907 294.38C114.947 294.427 114.967 294.507 114.967 294.62C114.967 294.7 114.95 294.773 114.917 294.84C114.89 294.907 114.84 294.953 114.767 294.98C114.687 295.007 114.58 295.03 114.447 295.05C114.32 295.077 114.203 295.09 114.097 295.09ZM116.101 295.07C115.968 295.07 115.868 295.033 115.801 294.96C115.735 294.887 115.701 294.783 115.701 294.65V288.29C115.701 288.157 115.735 288.057 115.801 287.99C115.868 287.917 115.968 287.88 116.101 287.88C116.228 287.88 116.328 287.917 116.401 287.99C116.475 288.057 116.511 288.157 116.511 288.29V291.22H116.381C116.521 290.833 116.748 290.543 117.061 290.35C117.381 290.15 117.748 290.05 118.161 290.05C118.548 290.05 118.868 290.12 119.121 290.26C119.381 290.4 119.575 290.613 119.701 290.9C119.828 291.18 119.891 291.537 119.891 291.97V294.65C119.891 294.783 119.855 294.887 119.781 294.96C119.715 295.033 119.618 295.07 119.491 295.07C119.358 295.07 119.255 295.033 119.181 294.96C119.115 294.887 119.081 294.783 119.081 294.65V292.02C119.081 291.567 118.991 291.237 118.811 291.03C118.638 290.817 118.358 290.71 117.971 290.71C117.525 290.71 117.168 290.85 116.901 291.13C116.641 291.403 116.511 291.77 116.511 292.23V294.65C116.511 294.93 116.375 295.07 116.101 295.07ZM123.575 295.09C123.062 295.09 122.618 294.99 122.245 294.79C121.878 294.583 121.592 294.293 121.385 293.92C121.185 293.547 121.085 293.1 121.085 292.58C121.085 292.073 121.185 291.633 121.385 291.26C121.585 290.88 121.858 290.583 122.205 290.37C122.558 290.157 122.965 290.05 123.425 290.05C123.752 290.05 124.045 290.107 124.305 290.22C124.565 290.327 124.785 290.483 124.965 290.69C125.152 290.897 125.292 291.147 125.385 291.44C125.485 291.733 125.535 292.063 125.535 292.43C125.535 292.537 125.505 292.617 125.445 292.67C125.385 292.717 125.298 292.74 125.185 292.74H121.705V292.21H124.995L124.835 292.34C124.835 291.98 124.782 291.677 124.675 291.43C124.568 291.177 124.412 290.983 124.205 290.85C124.005 290.717 123.752 290.65 123.445 290.65C123.105 290.65 122.815 290.73 122.575 290.89C122.342 291.043 122.165 291.26 122.045 291.54C121.925 291.813 121.865 292.133 121.865 292.5V292.56C121.865 293.173 122.012 293.64 122.305 293.96C122.605 294.28 123.028 294.44 123.575 294.44C123.802 294.44 124.025 294.41 124.245 294.35C124.472 294.29 124.692 294.19 124.905 294.05C124.998 293.99 125.082 293.963 125.155 293.97C125.235 293.97 125.298 293.993 125.345 294.04C125.392 294.08 125.422 294.133 125.435 294.2C125.455 294.26 125.448 294.327 125.415 294.4C125.388 294.473 125.332 294.537 125.245 294.59C125.025 294.75 124.765 294.873 124.465 294.96C124.165 295.047 123.868 295.09 123.575 295.09ZM132.615 295.09C131.862 295.09 131.225 294.947 130.705 294.66C130.192 294.373 129.802 293.96 129.535 293.42C129.269 292.88 129.135 292.233 129.135 291.48C129.135 290.92 129.209 290.417 129.355 289.97C129.509 289.523 129.729 289.147 130.015 288.84C130.309 288.527 130.662 288.287 131.075 288.12C131.495 287.947 131.969 287.86 132.495 287.86C132.915 287.86 133.322 287.92 133.715 288.04C134.109 288.153 134.459 288.337 134.765 288.59C134.845 288.65 134.895 288.717 134.915 288.79C134.935 288.863 134.932 288.937 134.905 289.01C134.885 289.083 134.849 289.147 134.795 289.2C134.749 289.247 134.685 289.273 134.605 289.28C134.532 289.287 134.455 289.263 134.375 289.21C134.102 288.997 133.812 288.843 133.505 288.75C133.199 288.65 132.859 288.6 132.485 288.6C131.952 288.6 131.499 288.713 131.125 288.94C130.759 289.167 130.479 289.493 130.285 289.92C130.099 290.347 130.005 290.867 130.005 291.48C130.005 292.413 130.222 293.127 130.655 293.62C131.095 294.113 131.755 294.36 132.635 294.36C132.955 294.36 133.269 294.33 133.575 294.27C133.882 294.203 134.172 294.113 134.445 294L134.265 294.47V291.98H132.835C132.715 291.98 132.625 291.95 132.565 291.89C132.505 291.83 132.475 291.75 132.475 291.65C132.475 291.543 132.505 291.463 132.565 291.41C132.625 291.357 132.715 291.33 132.835 291.33H134.625C134.739 291.33 134.825 291.36 134.885 291.42C134.945 291.48 134.975 291.567 134.975 291.68V294.29C134.975 294.39 134.959 294.473 134.925 294.54C134.892 294.607 134.835 294.657 134.755 294.69C134.475 294.803 134.139 294.9 133.745 294.98C133.359 295.053 132.982 295.09 132.615 295.09ZM138.071 295.09C137.738 295.09 137.438 295.027 137.171 294.9C136.911 294.767 136.705 294.587 136.551 294.36C136.398 294.133 136.321 293.88 136.321 293.6C136.321 293.24 136.411 292.957 136.591 292.75C136.778 292.543 137.081 292.397 137.501 292.31C137.928 292.223 138.508 292.18 139.241 292.18H139.691V292.71H139.251C138.711 292.71 138.285 292.737 137.971 292.79C137.665 292.837 137.448 292.92 137.321 293.04C137.201 293.16 137.141 293.33 137.141 293.55C137.141 293.823 137.235 294.047 137.421 294.22C137.615 294.393 137.875 294.48 138.201 294.48C138.468 294.48 138.701 294.417 138.901 294.29C139.108 294.163 139.268 293.99 139.381 293.77C139.501 293.55 139.561 293.297 139.561 293.01V291.87C139.561 291.457 139.478 291.16 139.311 290.98C139.145 290.793 138.871 290.7 138.491 290.7C138.258 290.7 138.025 290.73 137.791 290.79C137.558 290.85 137.311 290.947 137.051 291.08C136.958 291.127 136.878 291.143 136.811 291.13C136.745 291.11 136.691 291.073 136.651 291.02C136.611 290.967 136.588 290.907 136.581 290.84C136.575 290.767 136.588 290.697 136.621 290.63C136.661 290.563 136.721 290.51 136.801 290.47C137.095 290.323 137.385 290.217 137.671 290.15C137.958 290.083 138.231 290.05 138.491 290.05C138.911 290.05 139.258 290.12 139.531 290.26C139.805 290.393 140.008 290.6 140.141 290.88C140.275 291.153 140.341 291.507 140.341 291.94V294.65C140.341 294.783 140.308 294.887 140.241 294.96C140.181 295.033 140.091 295.07 139.971 295.07C139.845 295.07 139.748 295.033 139.681 294.96C139.615 294.887 139.581 294.783 139.581 294.65V293.87H139.671C139.618 294.123 139.515 294.34 139.361 294.52C139.215 294.7 139.031 294.84 138.811 294.94C138.591 295.04 138.345 295.09 138.071 295.09ZM142.244 296.87C142.111 296.87 142.011 296.833 141.944 296.76C141.877 296.693 141.844 296.593 141.844 296.46V290.48C141.844 290.347 141.877 290.247 141.944 290.18C142.011 290.107 142.107 290.07 142.234 290.07C142.367 290.07 142.467 290.107 142.534 290.18C142.607 290.247 142.644 290.347 142.644 290.48V291.43L142.534 291.29C142.641 290.91 142.851 290.61 143.164 290.39C143.484 290.163 143.864 290.05 144.304 290.05C144.737 290.05 145.114 290.153 145.434 290.36C145.761 290.56 146.011 290.85 146.184 291.23C146.364 291.603 146.454 292.05 146.454 292.57C146.454 293.083 146.364 293.53 146.184 293.91C146.011 294.283 145.764 294.573 145.444 294.78C145.124 294.987 144.744 295.09 144.304 295.09C143.864 295.09 143.487 294.98 143.174 294.76C142.861 294.533 142.647 294.233 142.534 293.86H142.654V296.46C142.654 296.593 142.617 296.693 142.544 296.76C142.471 296.833 142.371 296.87 142.244 296.87ZM144.134 294.44C144.441 294.44 144.704 294.367 144.924 294.22C145.151 294.073 145.324 293.86 145.444 293.58C145.571 293.3 145.634 292.963 145.634 292.57C145.634 291.963 145.497 291.5 145.224 291.18C144.957 290.86 144.594 290.7 144.134 290.7C143.834 290.7 143.571 290.773 143.344 290.92C143.117 291.06 142.941 291.27 142.814 291.55C142.694 291.823 142.634 292.163 142.634 292.57C142.634 293.17 142.771 293.633 143.044 293.96C143.317 294.28 143.681 294.44 144.134 294.44ZM150.652 295.05C150.519 295.05 150.419 295.013 150.352 294.94C150.286 294.86 150.252 294.75 150.252 294.61V290.52C150.252 290.38 150.286 290.273 150.352 290.2C150.419 290.127 150.519 290.09 150.652 290.09C150.779 290.09 150.879 290.127 150.952 290.2C151.026 290.273 151.062 290.38 151.062 290.52V294.61C151.062 294.75 151.026 294.86 150.952 294.94C150.886 295.013 150.786 295.05 150.652 295.05ZM150.652 288.97C150.486 288.97 150.356 288.927 150.262 288.84C150.169 288.747 150.122 288.623 150.122 288.47C150.122 288.31 150.169 288.19 150.262 288.11C150.356 288.023 150.486 287.98 150.652 287.98C150.826 287.98 150.956 288.023 151.042 288.11C151.136 288.19 151.182 288.31 151.182 288.47C151.182 288.623 151.136 288.747 151.042 288.84C150.956 288.927 150.826 288.97 150.652 288.97ZM152.976 295.07C152.843 295.07 152.743 295.033 152.676 294.96C152.61 294.887 152.576 294.783 152.576 294.65V290.48C152.576 290.347 152.61 290.247 152.676 290.18C152.743 290.107 152.84 290.07 152.966 290.07C153.093 290.07 153.19 290.107 153.256 290.18C153.33 290.247 153.366 290.347 153.366 290.48V291.34L153.256 291.22C153.396 290.833 153.623 290.543 153.936 290.35C154.256 290.15 154.623 290.05 155.036 290.05C155.423 290.05 155.743 290.12 155.996 290.26C156.256 290.4 156.45 290.613 156.576 290.9C156.703 291.18 156.766 291.537 156.766 291.97V294.65C156.766 294.783 156.73 294.887 156.656 294.96C156.59 295.033 156.493 295.07 156.366 295.07C156.233 295.07 156.13 295.033 156.056 294.96C155.99 294.887 155.956 294.783 155.956 294.65V292.02C155.956 291.567 155.866 291.237 155.686 291.03C155.513 290.817 155.233 290.71 154.846 290.71C154.4 290.71 154.043 290.85 153.776 291.13C153.516 291.403 153.386 291.77 153.386 292.23V294.65C153.386 294.93 153.25 295.07 152.976 295.07ZM161.358 295.07C161.225 295.07 161.121 295.033 161.048 294.96C160.981 294.88 160.948 294.773 160.948 294.64V288.37C160.948 288.23 160.985 288.127 161.058 288.06C161.131 287.987 161.235 287.95 161.368 287.95H163.738C164.491 287.95 165.071 288.137 165.478 288.51C165.885 288.877 166.088 289.397 166.088 290.07C166.088 290.737 165.885 291.257 165.478 291.63C165.071 292.003 164.491 292.19 163.738 292.19H161.768V294.64C161.768 294.773 161.735 294.88 161.668 294.96C161.601 295.033 161.498 295.07 161.358 295.07ZM161.768 291.5H163.638C164.178 291.5 164.585 291.38 164.858 291.14C165.138 290.893 165.278 290.537 165.278 290.07C165.278 289.597 165.138 289.24 164.858 289C164.585 288.753 164.178 288.63 163.638 288.63H161.768V291.5ZM168.971 295.09C168.498 295.09 168.088 294.987 167.741 294.78C167.395 294.573 167.125 294.283 166.931 293.91C166.745 293.53 166.651 293.083 166.651 292.57C166.651 292.183 166.705 291.837 166.811 291.53C166.918 291.217 167.075 290.95 167.281 290.73C167.488 290.51 167.731 290.343 168.011 290.23C168.298 290.11 168.618 290.05 168.971 290.05C169.445 290.05 169.855 290.153 170.201 290.36C170.548 290.567 170.815 290.86 171.001 291.24C171.195 291.613 171.291 292.057 171.291 292.57C171.291 292.957 171.238 293.303 171.131 293.61C171.025 293.917 170.868 294.183 170.661 294.41C170.455 294.63 170.208 294.8 169.921 294.92C169.641 295.033 169.325 295.09 168.971 295.09ZM168.971 294.44C169.271 294.44 169.535 294.367 169.761 294.22C169.988 294.073 170.161 293.86 170.281 293.58C170.408 293.3 170.471 292.963 170.471 292.57C170.471 291.963 170.335 291.5 170.061 291.18C169.795 290.86 169.431 290.7 168.971 290.7C168.665 290.7 168.398 290.773 168.171 290.92C167.951 291.06 167.778 291.27 167.651 291.55C167.531 291.823 167.471 292.163 167.471 292.57C167.471 293.17 167.608 293.633 167.881 293.96C168.155 294.28 168.518 294.44 168.971 294.44ZM174.228 295.09C173.835 295.09 173.508 295.02 173.248 294.88C172.995 294.733 172.801 294.517 172.668 294.23C172.541 293.943 172.478 293.587 172.478 293.16V290.48C172.478 290.34 172.511 290.237 172.578 290.17C172.651 290.103 172.751 290.07 172.878 290.07C173.011 290.07 173.111 290.103 173.178 290.17C173.251 290.237 173.288 290.34 173.288 290.48V293.15C173.288 293.577 173.375 293.897 173.548 294.11C173.728 294.317 174.008 294.42 174.388 294.42C174.801 294.42 175.138 294.28 175.398 294C175.658 293.72 175.788 293.353 175.788 292.9V290.48C175.788 290.34 175.821 290.237 175.888 290.17C175.961 290.103 176.065 290.07 176.198 290.07C176.325 290.07 176.421 290.103 176.488 290.17C176.561 290.237 176.598 290.34 176.598 290.48V294.65C176.598 294.93 176.468 295.07 176.208 295.07C176.081 295.07 175.981 295.033 175.908 294.96C175.841 294.887 175.808 294.783 175.808 294.65V293.74L175.938 293.88C175.805 294.273 175.585 294.573 175.278 294.78C174.978 294.987 174.628 295.09 174.228 295.09ZM179.594 295.09C179.114 295.09 178.747 294.943 178.494 294.65C178.24 294.357 178.114 293.937 178.114 293.39V288.29C178.114 288.157 178.147 288.057 178.214 287.99C178.28 287.917 178.38 287.88 178.514 287.88C178.64 287.88 178.74 287.917 178.814 287.99C178.887 288.057 178.924 288.157 178.924 288.29V293.33C178.924 293.69 178.994 293.96 179.134 294.14C179.28 294.313 179.494 294.4 179.774 294.4C179.834 294.4 179.887 294.397 179.934 294.39C179.98 294.383 180.027 294.38 180.074 294.38C180.147 294.373 180.197 294.39 180.224 294.43C180.257 294.47 180.274 294.55 180.274 294.67C180.274 294.79 180.247 294.88 180.194 294.94C180.14 295 180.054 295.04 179.934 295.06C179.88 295.067 179.824 295.073 179.764 295.08C179.704 295.087 179.647 295.09 179.594 295.09ZM182.935 295.09C182.555 295.09 182.235 295.023 181.975 294.89C181.721 294.75 181.531 294.55 181.405 294.29C181.278 294.023 181.215 293.7 181.215 293.32V290.77H180.545C180.431 290.77 180.345 290.743 180.285 290.69C180.225 290.63 180.195 290.55 180.195 290.45C180.195 290.35 180.225 290.273 180.285 290.22C180.345 290.167 180.431 290.14 180.545 290.14H181.215V288.99C181.215 288.857 181.251 288.757 181.325 288.69C181.398 288.617 181.498 288.58 181.625 288.58C181.751 288.58 181.848 288.617 181.915 288.69C181.988 288.757 182.025 288.857 182.025 288.99V290.14H183.285C183.398 290.14 183.485 290.167 183.545 290.22C183.605 290.273 183.635 290.35 183.635 290.45C183.635 290.55 183.605 290.63 183.545 290.69C183.485 290.743 183.398 290.77 183.285 290.77H182.025V293.24C182.025 293.62 182.105 293.91 182.265 294.11C182.425 294.303 182.685 294.4 183.045 294.4C183.171 294.4 183.278 294.387 183.365 294.36C183.458 294.333 183.535 294.32 183.595 294.32C183.655 294.313 183.705 294.333 183.745 294.38C183.785 294.427 183.805 294.507 183.805 294.62C183.805 294.7 183.788 294.773 183.755 294.84C183.728 294.907 183.678 294.953 183.605 294.98C183.525 295.007 183.418 295.03 183.285 295.05C183.158 295.077 183.041 295.09 182.935 295.09ZM184.891 295.07C184.757 295.07 184.654 295.033 184.581 294.96C184.514 294.887 184.481 294.783 184.481 294.65V290.48C184.481 290.347 184.514 290.247 184.581 290.18C184.647 290.107 184.744 290.07 184.871 290.07C184.997 290.07 185.094 290.107 185.161 290.18C185.234 290.247 185.271 290.347 185.271 290.48V291.29H185.171C185.277 290.897 185.481 290.593 185.781 290.38C186.081 290.167 186.451 290.053 186.891 290.04C186.991 290.033 187.071 290.057 187.131 290.11C187.191 290.157 187.224 290.24 187.231 290.36C187.237 290.473 187.211 290.563 187.151 290.63C187.091 290.697 186.997 290.737 186.871 290.75L186.711 290.77C186.257 290.81 185.907 290.957 185.661 291.21C185.421 291.457 185.301 291.797 185.301 292.23V294.65C185.301 294.783 185.264 294.887 185.191 294.96C185.124 295.033 185.024 295.07 184.891 295.07ZM189.447 296.87C189.347 296.87 189.267 296.843 189.207 296.79C189.147 296.737 189.111 296.663 189.097 296.57C189.091 296.483 189.107 296.393 189.147 296.3L189.837 294.75V295.1L187.917 290.64C187.877 290.54 187.864 290.447 187.877 290.36C187.891 290.273 187.931 290.203 187.997 290.15C188.064 290.097 188.157 290.07 188.277 290.07C188.384 290.07 188.467 290.093 188.527 290.14C188.587 290.187 188.641 290.27 188.687 290.39L190.327 294.41H190.057L191.717 290.39C191.771 290.27 191.827 290.187 191.887 290.14C191.947 290.093 192.034 290.07 192.147 290.07C192.254 290.07 192.334 290.097 192.387 290.15C192.447 290.203 192.481 290.273 192.487 290.36C192.501 290.44 192.487 290.53 192.447 290.63L189.887 296.55C189.834 296.67 189.774 296.753 189.707 296.8C189.647 296.847 189.561 296.87 189.447 296.87ZM196.592 295.07C196.472 295.07 196.379 295.037 196.312 294.97C196.246 294.897 196.212 294.797 196.212 294.67V288.28C196.212 288.147 196.246 288.047 196.312 287.98C196.379 287.913 196.472 287.88 196.592 287.88C196.699 287.88 196.782 287.903 196.842 287.95C196.909 287.99 196.969 288.06 197.022 288.16L199.762 293.32H199.462L202.192 288.16C202.246 288.06 202.302 287.99 202.362 287.95C202.422 287.903 202.509 287.88 202.622 287.88C202.736 287.88 202.826 287.913 202.892 287.98C202.959 288.047 202.992 288.147 202.992 288.28V294.67C202.992 294.797 202.959 294.897 202.892 294.97C202.832 295.037 202.739 295.07 202.612 295.07C202.492 295.07 202.399 295.037 202.332 294.97C202.266 294.897 202.232 294.797 202.232 294.67V289.05H202.472L199.972 293.74C199.926 293.827 199.876 293.89 199.822 293.93C199.776 293.963 199.706 293.98 199.612 293.98C199.519 293.98 199.446 293.96 199.392 293.92C199.339 293.88 199.292 293.82 199.252 293.74L196.722 289.04H196.962V294.67C196.962 294.797 196.929 294.897 196.862 294.97C196.802 295.037 196.712 295.07 196.592 295.07ZM206.167 295.09C205.834 295.09 205.534 295.027 205.267 294.9C205.007 294.767 204.8 294.587 204.647 294.36C204.494 294.133 204.417 293.88 204.417 293.6C204.417 293.24 204.507 292.957 204.687 292.75C204.874 292.543 205.177 292.397 205.597 292.31C206.024 292.223 206.604 292.18 207.337 292.18H207.787V292.71H207.347C206.807 292.71 206.38 292.737 206.067 292.79C205.76 292.837 205.544 292.92 205.417 293.04C205.297 293.16 205.237 293.33 205.237 293.55C205.237 293.823 205.33 294.047 205.517 294.22C205.71 294.393 205.97 294.48 206.297 294.48C206.564 294.48 206.797 294.417 206.997 294.29C207.204 294.163 207.364 293.99 207.477 293.77C207.597 293.55 207.657 293.297 207.657 293.01V291.87C207.657 291.457 207.574 291.16 207.407 290.98C207.24 290.793 206.967 290.7 206.587 290.7C206.354 290.7 206.12 290.73 205.887 290.79C205.654 290.85 205.407 290.947 205.147 291.08C205.054 291.127 204.974 291.143 204.907 291.13C204.84 291.11 204.787 291.073 204.747 291.02C204.707 290.967 204.684 290.907 204.677 290.84C204.67 290.767 204.684 290.697 204.717 290.63C204.757 290.563 204.817 290.51 204.897 290.47C205.19 290.323 205.48 290.217 205.767 290.15C206.054 290.083 206.327 290.05 206.587 290.05C207.007 290.05 207.354 290.12 207.627 290.26C207.9 290.393 208.104 290.6 208.237 290.88C208.37 291.153 208.437 291.507 208.437 291.94V294.65C208.437 294.783 208.404 294.887 208.337 294.96C208.277 295.033 208.187 295.07 208.067 295.07C207.94 295.07 207.844 295.033 207.777 294.96C207.71 294.887 207.677 294.783 207.677 294.65V293.87H207.767C207.714 294.123 207.61 294.34 207.457 294.52C207.31 294.7 207.127 294.84 206.907 294.94C206.687 295.04 206.44 295.09 206.167 295.09ZM210.34 295.07C210.206 295.07 210.106 295.033 210.04 294.96C209.973 294.887 209.94 294.783 209.94 294.65V290.48C209.94 290.347 209.973 290.247 210.04 290.18C210.106 290.107 210.203 290.07 210.33 290.07C210.456 290.07 210.553 290.107 210.62 290.18C210.693 290.247 210.73 290.347 210.73 290.48V291.34L210.62 291.22C210.76 290.833 210.986 290.543 211.3 290.35C211.62 290.15 211.986 290.05 212.4 290.05C212.786 290.05 213.106 290.12 213.36 290.26C213.62 290.4 213.813 290.613 213.94 290.9C214.066 291.18 214.13 291.537 214.13 291.97V294.65C214.13 294.783 214.093 294.887 214.02 294.96C213.953 295.033 213.856 295.07 213.73 295.07C213.596 295.07 213.493 295.033 213.42 294.96C213.353 294.887 213.32 294.783 213.32 294.65V292.02C213.32 291.567 213.23 291.237 213.05 291.03C212.876 290.817 212.596 290.71 212.21 290.71C211.763 290.71 211.406 290.85 211.14 291.13C210.88 291.403 210.75 291.77 210.75 292.23V294.65C210.75 294.93 210.613 295.07 210.34 295.07ZM217.153 295.09C216.82 295.09 216.52 295.027 216.253 294.9C215.993 294.767 215.787 294.587 215.633 294.36C215.48 294.133 215.403 293.88 215.403 293.6C215.403 293.24 215.493 292.957 215.673 292.75C215.86 292.543 216.163 292.397 216.583 292.31C217.01 292.223 217.59 292.18 218.323 292.18H218.773V292.71H218.333C217.793 292.71 217.367 292.737 217.053 292.79C216.747 292.837 216.53 292.92 216.403 293.04C216.283 293.16 216.223 293.33 216.223 293.55C216.223 293.823 216.317 294.047 216.503 294.22C216.697 294.393 216.957 294.48 217.283 294.48C217.55 294.48 217.783 294.417 217.983 294.29C218.19 294.163 218.35 293.99 218.463 293.77C218.583 293.55 218.643 293.297 218.643 293.01V291.87C218.643 291.457 218.56 291.16 218.393 290.98C218.227 290.793 217.953 290.7 217.573 290.7C217.34 290.7 217.107 290.73 216.873 290.79C216.64 290.85 216.393 290.947 216.133 291.08C216.04 291.127 215.96 291.143 215.893 291.13C215.827 291.11 215.773 291.073 215.733 291.02C215.693 290.967 215.67 290.907 215.663 290.84C215.657 290.767 215.67 290.697 215.703 290.63C215.743 290.563 215.803 290.51 215.883 290.47C216.177 290.323 216.467 290.217 216.753 290.15C217.04 290.083 217.313 290.05 217.573 290.05C217.993 290.05 218.34 290.12 218.613 290.26C218.887 290.393 219.09 290.6 219.223 290.88C219.357 291.153 219.423 291.507 219.423 291.94V294.65C219.423 294.783 219.39 294.887 219.323 294.96C219.263 295.033 219.173 295.07 219.053 295.07C218.927 295.07 218.83 295.033 218.763 294.96C218.697 294.887 218.663 294.783 218.663 294.65V293.87H218.753C218.7 294.123 218.597 294.34 218.443 294.52C218.297 294.7 218.113 294.84 217.893 294.94C217.673 295.04 217.427 295.09 217.153 295.09ZM223.076 296.89C222.723 296.89 222.376 296.847 222.036 296.76C221.703 296.68 221.399 296.55 221.126 296.37C221.046 296.323 220.993 296.267 220.966 296.2C220.946 296.133 220.943 296.067 220.956 296C220.969 295.94 220.999 295.883 221.046 295.83C221.093 295.783 221.146 295.753 221.206 295.74C221.273 295.727 221.339 295.737 221.406 295.77C221.699 295.95 221.979 296.073 222.246 296.14C222.513 296.207 222.776 296.24 223.036 296.24C223.509 296.24 223.866 296.113 224.106 295.86C224.353 295.607 224.476 295.24 224.476 294.76V293.63H224.576C224.476 294.017 224.263 294.323 223.936 294.55C223.616 294.777 223.239 294.89 222.806 294.89C222.359 294.89 221.973 294.79 221.646 294.59C221.319 294.383 221.066 294.097 220.886 293.73C220.713 293.363 220.626 292.94 220.626 292.46C220.626 292.1 220.676 291.773 220.776 291.48C220.876 291.18 221.019 290.927 221.206 290.72C221.399 290.507 221.629 290.343 221.896 290.23C222.169 290.11 222.473 290.05 222.806 290.05C223.246 290.05 223.626 290.163 223.946 290.39C224.266 290.61 224.473 290.91 224.566 291.29L224.466 291.41V290.48C224.466 290.347 224.499 290.247 224.566 290.18C224.639 290.107 224.739 290.07 224.866 290.07C224.999 290.07 225.099 290.107 225.166 290.18C225.233 290.247 225.266 290.347 225.266 290.48V294.65C225.266 295.39 225.079 295.947 224.706 296.32C224.339 296.7 223.796 296.89 223.076 296.89ZM222.956 294.23C223.269 294.23 223.539 294.16 223.766 294.02C223.993 293.873 224.166 293.667 224.286 293.4C224.413 293.133 224.476 292.82 224.476 292.46C224.476 291.92 224.339 291.493 224.066 291.18C223.793 290.86 223.423 290.7 222.956 290.7C222.649 290.7 222.383 290.773 222.156 290.92C221.929 291.06 221.753 291.263 221.626 291.53C221.506 291.79 221.446 292.1 221.446 292.46C221.446 293 221.583 293.43 221.856 293.75C222.129 294.07 222.496 294.23 222.956 294.23ZM228.975 295.09C228.462 295.09 228.019 294.99 227.645 294.79C227.279 294.583 226.992 294.293 226.785 293.92C226.585 293.547 226.485 293.1 226.485 292.58C226.485 292.073 226.585 291.633 226.785 291.26C226.985 290.88 227.259 290.583 227.605 290.37C227.959 290.157 228.365 290.05 228.825 290.05C229.152 290.05 229.445 290.107 229.705 290.22C229.965 290.327 230.185 290.483 230.365 290.69C230.552 290.897 230.692 291.147 230.785 291.44C230.885 291.733 230.935 292.063 230.935 292.43C230.935 292.537 230.905 292.617 230.845 292.67C230.785 292.717 230.699 292.74 230.585 292.74H227.105V292.21H230.395L230.235 292.34C230.235 291.98 230.182 291.677 230.075 291.43C229.969 291.177 229.812 290.983 229.605 290.85C229.405 290.717 229.152 290.65 228.845 290.65C228.505 290.65 228.215 290.73 227.975 290.89C227.742 291.043 227.565 291.26 227.445 291.54C227.325 291.813 227.265 292.133 227.265 292.5V292.56C227.265 293.173 227.412 293.64 227.705 293.96C228.005 294.28 228.429 294.44 228.975 294.44C229.202 294.44 229.425 294.41 229.645 294.35C229.872 294.29 230.092 294.19 230.305 294.05C230.399 293.99 230.482 293.963 230.555 293.97C230.635 293.97 230.699 293.993 230.745 294.04C230.792 294.08 230.822 294.133 230.835 294.2C230.855 294.26 230.849 294.327 230.815 294.4C230.789 294.473 230.732 294.537 230.645 294.59C230.425 294.75 230.165 294.873 229.865 294.96C229.565 295.047 229.269 295.09 228.975 295.09ZM232.528 295.07C232.394 295.07 232.294 295.033 232.228 294.96C232.161 294.887 232.128 294.783 232.128 294.65V290.48C232.128 290.347 232.161 290.247 232.228 290.18C232.294 290.107 232.391 290.07 232.518 290.07C232.644 290.07 232.741 290.107 232.808 290.18C232.881 290.247 232.918 290.347 232.918 290.48V291.36L232.808 291.22C232.934 290.847 233.138 290.56 233.418 290.36C233.704 290.153 234.044 290.05 234.438 290.05C234.851 290.05 235.184 290.15 235.438 290.35C235.698 290.543 235.871 290.847 235.958 291.26H235.808C235.928 290.887 236.141 290.593 236.448 290.38C236.761 290.16 237.124 290.05 237.538 290.05C237.904 290.05 238.204 290.12 238.438 290.26C238.678 290.4 238.858 290.613 238.978 290.9C239.098 291.18 239.158 291.537 239.158 291.97V294.65C239.158 294.783 239.121 294.887 239.048 294.96C238.981 295.033 238.881 295.07 238.748 295.07C238.621 295.07 238.521 295.033 238.448 294.96C238.381 294.887 238.348 294.783 238.348 294.65V292.01C238.348 291.563 238.271 291.237 238.118 291.03C237.964 290.817 237.704 290.71 237.338 290.71C236.938 290.71 236.621 290.85 236.388 291.13C236.161 291.403 236.048 291.777 236.048 292.25V294.65C236.048 294.783 236.011 294.887 235.938 294.96C235.871 295.033 235.771 295.07 235.638 295.07C235.511 295.07 235.411 295.033 235.338 294.96C235.271 294.887 235.238 294.783 235.238 294.65V292.01C235.238 291.563 235.158 291.237 234.998 291.03C234.844 290.817 234.588 290.71 234.228 290.71C233.828 290.71 233.511 290.85 233.278 291.13C233.051 291.403 232.938 291.777 232.938 292.25V294.65C232.938 294.93 232.801 295.07 232.528 295.07ZM242.862 295.09C242.349 295.09 241.905 294.99 241.532 294.79C241.165 294.583 240.879 294.293 240.672 293.92C240.472 293.547 240.372 293.1 240.372 292.58C240.372 292.073 240.472 291.633 240.672 291.26C240.872 290.88 241.145 290.583 241.492 290.37C241.845 290.157 242.252 290.05 242.712 290.05C243.039 290.05 243.332 290.107 243.592 290.22C243.852 290.327 244.072 290.483 244.252 290.69C244.439 290.897 244.579 291.147 244.672 291.44C244.772 291.733 244.822 292.063 244.822 292.43C244.822 292.537 244.792 292.617 244.732 292.67C244.672 292.717 244.585 292.74 244.472 292.74H240.992V292.21H244.282L244.122 292.34C244.122 291.98 244.069 291.677 243.962 291.43C243.855 291.177 243.699 290.983 243.492 290.85C243.292 290.717 243.039 290.65 242.732 290.65C242.392 290.65 242.102 290.73 241.862 290.89C241.629 291.043 241.452 291.26 241.332 291.54C241.212 291.813 241.152 292.133 241.152 292.5V292.56C241.152 293.173 241.299 293.64 241.592 293.96C241.892 294.28 242.315 294.44 242.862 294.44C243.089 294.44 243.312 294.41 243.532 294.35C243.759 294.29 243.979 294.19 244.192 294.05C244.285 293.99 244.369 293.963 244.442 293.97C244.522 293.97 244.585 293.993 244.632 294.04C244.679 294.08 244.709 294.133 244.722 294.2C244.742 294.26 244.735 294.327 244.702 294.4C244.675 294.473 244.619 294.537 244.532 294.59C244.312 294.75 244.052 294.873 243.752 294.96C243.452 295.047 243.155 295.09 242.862 295.09ZM246.394 295.07C246.261 295.07 246.161 295.033 246.094 294.96C246.028 294.887 245.994 294.783 245.994 294.65V290.48C245.994 290.347 246.028 290.247 246.094 290.18C246.161 290.107 246.258 290.07 246.384 290.07C246.511 290.07 246.608 290.107 246.674 290.18C246.748 290.247 246.784 290.347 246.784 290.48V291.34L246.674 291.22C246.814 290.833 247.041 290.543 247.354 290.35C247.674 290.15 248.041 290.05 248.454 290.05C248.841 290.05 249.161 290.12 249.414 290.26C249.674 290.4 249.868 290.613 249.994 290.9C250.121 291.18 250.184 291.537 250.184 291.97V294.65C250.184 294.783 250.148 294.887 250.074 294.96C250.008 295.033 249.911 295.07 249.784 295.07C249.651 295.07 249.548 295.033 249.474 294.96C249.408 294.887 249.374 294.783 249.374 294.65V292.02C249.374 291.567 249.284 291.237 249.104 291.03C248.931 290.817 248.651 290.71 248.264 290.71C247.818 290.71 247.461 290.85 247.194 291.13C246.934 291.403 246.804 291.77 246.804 292.23V294.65C246.804 294.93 246.668 295.07 246.394 295.07ZM253.628 295.09C253.248 295.09 252.928 295.023 252.668 294.89C252.415 294.75 252.225 294.55 252.098 294.29C251.971 294.023 251.908 293.7 251.908 293.32V290.77H251.238C251.125 290.77 251.038 290.743 250.978 290.69C250.918 290.63 250.888 290.55 250.888 290.45C250.888 290.35 250.918 290.273 250.978 290.22C251.038 290.167 251.125 290.14 251.238 290.14H251.908V288.99C251.908 288.857 251.945 288.757 252.018 288.69C252.091 288.617 252.191 288.58 252.318 288.58C252.445 288.58 252.541 288.617 252.608 288.69C252.681 288.757 252.718 288.857 252.718 288.99V290.14H253.978C254.091 290.14 254.178 290.167 254.238 290.22C254.298 290.273 254.328 290.35 254.328 290.45C254.328 290.55 254.298 290.63 254.238 290.69C254.178 290.743 254.091 290.77 253.978 290.77H252.718V293.24C252.718 293.62 252.798 293.91 252.958 294.11C253.118 294.303 253.378 294.4 253.738 294.4C253.865 294.4 253.971 294.387 254.058 294.36C254.151 294.333 254.228 294.32 254.288 294.32C254.348 294.313 254.398 294.333 254.438 294.38C254.478 294.427 254.498 294.507 254.498 294.62C254.498 294.7 254.481 294.773 254.448 294.84C254.421 294.907 254.371 294.953 254.298 294.98C254.218 295.007 254.111 295.03 253.978 295.05C253.851 295.077 253.735 295.09 253.628 295.09Z" fill="black"/>
</svg>
