<svg width="46" height="46" viewBox="0 0 46 46" fill="none" xmlns="http://www.w3.org/2000/svg">
<path d="M8.625 40.25C8.625 40.25 5.75 40.25 5.75 37.375C5.75 34.5 8.625 25.875 23 25.875C37.375 25.875 40.25 34.5 40.25 37.375C40.25 40.25 37.375 40.25 37.375 40.25H8.625ZM23 23C25.2875 23 27.4813 22.0913 29.0988 20.4738C30.7163 18.8563 31.625 16.6625 31.625 14.375C31.625 12.0875 30.7163 9.89371 29.0988 8.2762C27.4813 6.6587 25.2875 5.75 23 5.75C20.7125 5.75 18.5187 6.6587 16.9012 8.2762C15.2837 9.89371 14.375 12.0875 14.375 14.375C14.375 16.6625 15.2837 18.8563 16.9012 20.4738C18.5187 22.0913 20.7125 23 23 23Z" fill="#00681D"/>
</svg>
