<svg width="241" height="208" viewBox="0 0 241 208" fill="none" xmlns="http://www.w3.org/2000/svg">
<path d="M240.281 134.266C228.238 103.997 197.109 81.7827 189.868 48.4818C185.203 13.6604 133.329 -0.581573 105.141 17.8178C60.478 46.972 98.4332 66.1524 10.8621 135.129C-10.7614 152.161 6.19105 183.49 17.2143 193.216C25.3311 200.377 46.8715 210.592 65.9308 206.058C102.673 197.318 123.177 189.686 139.643 188.158C181.15 184.304 245.42 186.454 240.281 134.266Z" fill="#FEF8E2"/>
<path d="M141.2 127.864C140.781 128.059 140.546 128.159 140.543 128.16C140.515 128.172 140.49 128.189 140.469 128.21C140.447 128.232 140.431 128.257 140.419 128.286C140.408 128.314 140.402 128.344 140.402 128.374C140.403 128.404 140.409 128.434 140.421 128.462C140.432 128.49 140.449 128.515 140.471 128.536C140.493 128.558 140.518 128.574 140.546 128.586C140.574 128.597 140.604 128.603 140.634 128.603C140.665 128.602 140.695 128.596 140.722 128.584C140.732 128.58 140.968 128.481 141.395 128.28C141.451 128.254 141.494 128.207 141.515 128.149C141.536 128.092 141.533 128.028 141.507 127.973C141.481 127.917 141.434 127.874 141.377 127.853C141.319 127.832 141.256 127.835 141.2 127.861V127.864Z" fill="#292A2E"/>
<path d="M125.204 59.1488C124.722 59.1123 124.239 59.0775 123.754 59.0445C123.724 59.0424 123.693 59.0463 123.665 59.056C123.636 59.0657 123.61 59.0809 123.587 59.1008C123.541 59.141 123.512 59.1979 123.508 59.2589C123.504 59.3199 123.524 59.38 123.565 59.4261C123.605 59.4721 123.662 59.5003 123.723 59.5045C124.205 59.5372 124.687 59.572 125.17 59.6088H125.188C125.248 59.6102 125.307 59.5878 125.351 59.5463C125.395 59.5049 125.421 59.4477 125.423 59.3872C125.426 59.3268 125.404 59.2678 125.363 59.2231C125.322 59.1784 125.266 59.1516 125.205 59.1484L125.204 59.1488Z" fill="#292A2E"/>
<path d="M92.6791 57.2391C92.202 57.1465 91.7271 57.046 91.2702 56.9409C91.2107 56.9272 91.1481 56.9378 91.0964 56.9702C91.0446 57.0026 91.0078 57.0543 90.9941 57.1138C90.9805 57.1733 90.991 57.2359 91.0234 57.2876C91.0558 57.3394 91.1075 57.3762 91.167 57.3899C91.63 57.4965 92.1094 57.5978 92.5923 57.6918C92.6068 57.6945 92.6216 57.6959 92.6364 57.696C92.6935 57.6955 92.7483 57.6738 92.7903 57.6352C92.8323 57.5966 92.8585 57.5439 92.8639 57.4871C92.8693 57.4303 92.8535 57.3735 92.8195 57.3277C92.7855 57.2819 92.7358 57.2503 92.6799 57.2391H92.6791Z" fill="#292A2E"/>
<path d="M99.8287 58.0896H99.7941C99.3215 58.0652 98.849 58.0351 98.3886 57.9997C98.3277 57.995 98.2674 58.0148 98.221 58.0546C98.1746 58.0944 98.1459 58.151 98.1413 58.212C98.1366 58.2729 98.1564 58.3332 98.1962 58.3796C98.236 58.426 98.2926 58.4546 98.3536 58.4593C98.8174 58.4947 99.2941 58.5252 99.7682 58.5499H99.8063H99.8177C99.8788 58.5514 99.938 58.5285 99.9822 58.4863C100.026 58.4442 100.052 58.3862 100.054 58.3251C100.055 58.264 100.032 58.2048 99.99 58.1606C99.9478 58.1163 99.8898 58.0906 99.8287 58.0892V58.0896Z" fill="#292A2E"/>
<path d="M89.1749 56.4022C88.7104 56.2689 88.2473 56.1261 87.7988 55.9784C87.7407 55.9592 87.6774 55.964 87.6228 55.9915C87.5682 56.019 87.5268 56.0671 87.5077 56.1252C87.4885 56.1832 87.4933 56.2465 87.5208 56.3011C87.5483 56.3557 87.5964 56.3971 87.6545 56.4163C88.1087 56.5659 88.5775 56.7102 89.0478 56.845C89.1065 56.8619 89.1695 56.8548 89.223 56.8252C89.2764 56.7956 89.3159 56.7459 89.3328 56.6872C89.3496 56.6285 89.3425 56.5655 89.3129 56.512C89.2833 56.4586 89.2337 56.4191 89.1749 56.4022Z" fill="#292A2E"/>
<path d="M103.453 58.2462C102.965 58.2282 102.482 58.2094 102.006 58.1899C101.975 58.188 101.945 58.1923 101.916 58.2025C101.888 58.2127 101.861 58.2285 101.839 58.2491C101.816 58.2697 101.798 58.2946 101.786 58.3223C101.773 58.35 101.767 58.3799 101.766 58.4103C101.763 58.4714 101.785 58.531 101.827 58.576C101.868 58.621 101.926 58.6477 101.987 58.6502C102.464 58.6703 102.948 58.6892 103.437 58.707H103.446C103.507 58.708 103.566 58.6848 103.61 58.6423C103.654 58.5999 103.679 58.5417 103.68 58.4806C103.681 58.4195 103.658 58.3605 103.616 58.3165C103.573 58.2726 103.515 58.2473 103.454 58.2462H103.453Z" fill="#292A2E"/>
<path d="M85.7694 55.2397C85.3219 55.06 84.8772 54.8692 84.4473 54.6731C84.3924 54.6516 84.3313 54.6519 84.2766 54.6741C84.222 54.6963 84.1779 54.7386 84.1535 54.7923C84.1291 54.846 84.1262 54.907 84.1454 54.9627C84.1647 55.0185 84.2046 55.0648 84.2569 55.092C84.6929 55.2911 85.1445 55.4846 85.5984 55.667C85.6257 55.6781 85.6549 55.6837 85.6844 55.6837C85.738 55.6838 85.79 55.6652 85.8313 55.6311C85.8727 55.597 85.9009 55.5496 85.911 55.497C85.9212 55.4443 85.9127 55.3898 85.8869 55.3428C85.8612 55.2958 85.8199 55.2592 85.7701 55.2393L85.7694 55.2397Z" fill="#292A2E"/>
<path d="M96.2374 57.7896C95.7603 57.7337 95.279 57.6705 94.8072 57.6015C94.7466 57.5927 94.685 57.6083 94.6359 57.6449C94.5868 57.6815 94.5542 57.7361 94.5454 57.7967C94.5365 57.8573 94.5522 57.9189 94.5888 57.968C94.6254 58.0171 94.6799 58.0496 94.7405 58.0585C95.2169 58.1285 95.7024 58.1921 96.1837 58.2489C96.1927 58.2494 96.2017 58.2494 96.2107 58.2489C96.2696 58.2489 96.3262 58.2265 96.369 58.1861C96.4118 58.1458 96.4375 58.0906 96.4409 58.0318C96.4443 57.9731 96.4252 57.9153 96.3873 57.8703C96.3495 57.8252 96.2958 57.7964 96.2374 57.7896Z" fill="#292A2E"/>
<path d="M121.579 58.9086C121.095 58.8809 120.612 58.8545 120.129 58.8294C120.068 58.8263 120.008 58.8475 119.963 58.8885C119.917 58.9294 119.89 58.9867 119.887 59.0478C119.884 59.1088 119.905 59.1686 119.946 59.214C119.987 59.2594 120.044 59.2866 120.105 59.2898C120.588 59.3152 121.07 59.3416 121.552 59.369H121.565C121.626 59.3707 121.686 59.3481 121.73 59.3061C121.775 59.2641 121.8 59.2062 121.802 59.1451C121.804 59.084 121.781 59.0247 121.739 58.9803C121.697 58.9359 121.639 58.9099 121.578 58.9082L121.579 58.9086Z" fill="#292A2E"/>
<path d="M117.952 58.7257C117.468 58.7044 116.984 58.6844 116.502 58.6656H116.493C116.432 58.6644 116.373 58.6875 116.329 58.7298C116.284 58.7722 116.259 58.8303 116.258 58.8914C116.257 58.9525 116.28 59.0116 116.322 59.0556C116.364 59.0997 116.423 59.1251 116.484 59.1263C116.966 59.1454 117.448 59.1655 117.931 59.1869H117.941C118.002 59.1882 118.061 59.1652 118.105 59.1229C118.149 59.0806 118.175 59.0225 118.176 58.9614C118.178 58.9003 118.155 58.8412 118.112 58.7971C118.07 58.753 118.012 58.7274 117.951 58.7261L117.952 58.7257Z" fill="#292A2E"/>
<path d="M114.329 58.5852C113.843 58.5684 113.36 58.5525 112.878 58.5372C112.848 58.5363 112.818 58.5413 112.79 58.552C112.761 58.5627 112.735 58.5789 112.713 58.5996C112.691 58.6203 112.673 58.6452 112.661 58.6728C112.649 58.7003 112.642 58.7301 112.641 58.7604C112.64 58.7906 112.645 58.8208 112.656 58.8491C112.666 58.8774 112.682 58.9033 112.703 58.9254C112.724 58.9474 112.749 58.9652 112.776 58.9777C112.804 58.9901 112.834 58.997 112.864 58.998C113.345 59.0132 113.828 59.0292 114.313 59.0459H114.321C114.382 59.047 114.441 59.0238 114.485 58.9813C114.529 58.9388 114.554 58.8807 114.555 58.8196C114.556 58.7585 114.533 58.6995 114.49 58.6555C114.448 58.6115 114.39 58.5863 114.329 58.5852Z" fill="#292A2E"/>
<path d="M82.5207 53.706C82.0988 53.4737 81.683 53.2292 81.2821 52.9798C81.2564 52.9638 81.2279 52.953 81.198 52.948C81.1682 52.943 81.1377 52.9439 81.1082 52.9507C81.0787 52.9575 81.0509 52.9701 81.0262 52.9877C81.0016 53.0052 80.9807 53.0275 80.9647 53.0531C80.9487 53.0788 80.9378 53.1073 80.9328 53.1372C80.9279 53.167 80.9288 53.1975 80.9356 53.227C80.9424 53.2565 80.9549 53.2843 80.9725 53.3089C80.9901 53.3335 81.0123 53.3545 81.038 53.3705C81.445 53.6249 81.8688 53.8735 82.298 54.1096C82.3245 54.1242 82.3536 54.1335 82.3837 54.1369C82.4138 54.1402 82.4442 54.1376 82.4733 54.1292C82.5024 54.1208 82.5295 54.1068 82.5532 54.0879C82.5768 54.069 82.5966 54.0457 82.6112 54.0192C82.6258 53.9927 82.6351 53.9635 82.6384 53.9334C82.6418 53.9034 82.6392 53.8729 82.6308 53.8438C82.6224 53.8147 82.6084 53.7876 82.5895 53.764C82.5706 53.7403 82.5472 53.7206 82.5207 53.706Z" fill="#292A2E"/>
<path d="M107.074 58.3643L105.624 58.3193C105.564 58.3191 105.505 58.3421 105.461 58.3836C105.417 58.4251 105.39 58.482 105.387 58.5425C105.385 58.6036 105.407 58.663 105.449 58.7076C105.491 58.7522 105.549 58.7784 105.61 58.7805C106.09 58.7957 106.573 58.8105 107.061 58.825H107.068C107.129 58.8259 107.188 58.8024 107.231 58.7598C107.275 58.7172 107.3 58.659 107.301 58.5979C107.302 58.5368 107.279 58.4778 107.236 58.434C107.193 58.3902 107.135 58.3651 107.074 58.3643Z" fill="#292A2E"/>
<path d="M75.6472 26.2831C75.9016 25.884 76.1723 25.4834 76.4514 25.0916C76.4703 25.067 76.4839 25.0389 76.4916 25.0089C76.4994 24.979 76.5009 24.9477 76.4963 24.9171C76.4917 24.8865 76.4809 24.8572 76.4647 24.8308C76.4485 24.8045 76.4271 24.7816 76.4019 24.7637C76.3767 24.7458 76.3481 24.7332 76.3178 24.7265C76.2876 24.7199 76.2563 24.7194 76.2259 24.7252C76.1955 24.7309 76.1665 24.7427 76.1408 24.7599C76.115 24.777 76.093 24.7992 76.076 24.8251C75.7923 25.223 75.5174 25.6304 75.2588 26.036C75.2426 26.0615 75.2315 26.0899 75.2262 26.1197C75.2209 26.1495 75.2215 26.18 75.2281 26.2096C75.2346 26.2391 75.2469 26.2671 75.2642 26.2919C75.2815 26.3167 75.3036 26.3378 75.3291 26.3541C75.3546 26.3704 75.3831 26.3815 75.4128 26.3867C75.4426 26.392 75.4732 26.3914 75.5027 26.3849C75.5323 26.3783 75.5602 26.3661 75.585 26.3487C75.6098 26.3314 75.631 26.3093 75.6472 26.2838V26.2831Z" fill="#292A2E"/>
<path d="M71.876 36.5402H71.8931C71.9512 36.5404 72.0072 36.5183 72.0496 36.4787C72.0921 36.439 72.1178 36.3846 72.1216 36.3266C72.1562 35.8571 72.2103 35.3785 72.2823 34.9044C72.2915 34.8438 72.2762 34.782 72.2399 34.7327C72.2035 34.6834 72.149 34.6505 72.0884 34.6413C72.0279 34.6321 71.9661 34.6474 71.9167 34.6837C71.8674 34.72 71.8345 34.7745 71.8253 34.8351C71.7515 35.321 71.6962 35.8114 71.6608 36.2927C71.6585 36.3232 71.6622 36.3537 71.6718 36.3827C71.6814 36.4117 71.6966 36.4384 71.7167 36.4615C71.7367 36.4845 71.7611 36.5033 71.7884 36.5168C71.8158 36.5304 71.8455 36.5383 71.876 36.5402Z" fill="#292A2E"/>
<path d="M72.2241 39.8941C72.1612 39.4269 72.1171 38.9486 72.0935 38.4715C72.092 38.4413 72.0845 38.4116 72.0716 38.3843C72.0586 38.3569 72.0404 38.3324 72.018 38.3121C71.9955 38.2918 71.9693 38.2761 71.9408 38.2659C71.9123 38.2557 71.8821 38.2512 71.8519 38.2527C71.8216 38.2542 71.792 38.2617 71.7646 38.2746C71.7373 38.2876 71.7128 38.3058 71.6924 38.3282C71.6721 38.3507 71.6564 38.3769 71.6463 38.4054C71.6361 38.4339 71.6316 38.4641 71.6331 38.4943C71.6575 38.9844 71.7024 39.476 71.7671 39.9558C71.7748 40.011 71.8021 40.0616 71.8441 40.0983C71.886 40.1349 71.9399 40.1552 71.9956 40.1553C72.006 40.1559 72.0164 40.1559 72.0268 40.1553C72.057 40.1512 72.086 40.1412 72.1123 40.1258C72.1385 40.1104 72.1614 40.09 72.1798 40.0657C72.1981 40.0414 72.2115 40.0138 72.2191 39.9843C72.2267 39.9549 72.2284 39.9242 72.2241 39.8941Z" fill="#292A2E"/>
<path d="M72.9927 31.1398C72.9349 31.1201 72.8716 31.1241 72.8168 31.151C72.7619 31.1779 72.72 31.2255 72.7003 31.2834C72.5415 31.7483 72.3979 32.2197 72.2734 32.6846C72.2656 32.7139 72.2636 32.7444 72.2676 32.7744C72.2716 32.8044 72.2815 32.8333 72.2967 32.8595C72.3118 32.8857 72.332 32.9087 72.356 32.9271C72.3801 32.9455 72.4075 32.959 72.4368 32.9668C72.466 32.9746 72.4965 32.9766 72.5265 32.9726C72.5565 32.9686 72.5855 32.9587 72.6117 32.9435C72.6379 32.9284 72.6608 32.9082 72.6792 32.8842C72.6976 32.8601 72.7111 32.8327 72.7189 32.8034C72.8404 32.3488 72.9809 31.8877 73.1378 31.4326C73.1476 31.4039 73.1516 31.3735 73.1496 31.3432C73.1476 31.3129 73.1396 31.2832 73.1262 31.256C73.1127 31.2288 73.0939 31.2045 73.071 31.1846C73.0481 31.1646 73.0215 31.1494 72.9927 31.1398Z" fill="#292A2E"/>
<path d="M72.6484 41.9927C72.6405 41.9634 72.627 41.936 72.6085 41.9121C72.59 41.8881 72.567 41.868 72.5407 41.8529C72.5145 41.8378 72.4855 41.8281 72.4555 41.8242C72.4254 41.8203 72.3949 41.8224 72.3657 41.8303C72.3365 41.8382 72.3091 41.8517 72.2851 41.8702C72.2611 41.8887 72.241 41.9117 72.2259 41.938C72.2109 41.9642 72.2011 41.9932 72.1972 42.0232C72.1933 42.0533 72.1954 42.0838 72.2033 42.113C72.3301 42.5829 72.4797 43.0539 72.6473 43.5127C72.6577 43.5412 72.6735 43.5673 72.694 43.5896C72.7145 43.6119 72.7391 43.6299 72.7666 43.6427C72.794 43.6554 72.8237 43.6627 72.8539 43.664C72.8842 43.6653 72.9144 43.6606 72.9428 43.6502C72.9712 43.6398 72.9973 43.624 73.0196 43.6035C73.0419 43.583 73.0599 43.5584 73.0727 43.5309C73.0855 43.5035 73.0927 43.4738 73.094 43.4436C73.0953 43.4133 73.0906 43.3831 73.0802 43.3547C72.9169 42.9084 72.7718 42.45 72.6484 41.9927Z" fill="#292A2E"/>
<path d="M167.038 88.7142C167.114 89.1871 167.184 89.6662 167.24 90.1391C167.246 90.1952 167.273 90.2471 167.315 90.2846C167.357 90.3222 167.412 90.3428 167.468 90.3424C167.477 90.343 167.487 90.343 167.496 90.3424C167.556 90.3351 167.612 90.304 167.649 90.256C167.687 90.2079 167.705 90.1469 167.697 90.0862C167.641 89.6071 167.572 89.1209 167.493 88.6392C167.488 88.6093 167.477 88.5808 167.461 88.5551C167.445 88.5294 167.424 88.5072 167.399 88.4896C167.375 88.472 167.347 88.4595 167.317 88.4527C167.288 88.4459 167.257 88.4449 167.228 88.4499C167.198 88.4549 167.169 88.4658 167.143 88.4818C167.118 88.4979 167.096 88.5188 167.078 88.5434C167.06 88.5681 167.048 88.596 167.041 88.6255C167.034 88.655 167.033 88.6855 167.038 88.7153V88.7142Z" fill="#292A2E"/>
<path d="M166.62 86.5959C166.632 86.6468 166.66 86.6921 166.701 86.7246C166.742 86.7571 166.793 86.7748 166.845 86.7749C166.862 86.7749 166.88 86.7728 166.897 86.7688C166.926 86.7622 166.954 86.7499 166.979 86.7324C167.004 86.7149 167.025 86.6927 167.041 86.667C167.057 86.6413 167.068 86.6127 167.073 86.5827C167.078 86.5528 167.076 86.5222 167.069 86.4927C166.962 86.0263 166.841 85.5503 166.715 85.0781C166.699 85.0192 166.66 84.969 166.607 84.9386C166.554 84.9083 166.491 84.9002 166.432 84.9163C166.373 84.9324 166.322 84.9712 166.292 85.0242C166.262 85.0773 166.254 85.1402 166.27 85.1992C166.397 85.6653 166.514 86.1352 166.62 86.5959Z" fill="#292A2E"/>
<path d="M73.628 29.5481C73.6555 29.5609 73.6852 29.568 73.7155 29.5691C73.7457 29.5703 73.7759 29.5654 73.8042 29.5547C73.8326 29.5441 73.8585 29.528 73.8806 29.5072C73.9026 29.4865 73.9203 29.4616 73.9327 29.4339C74.1269 29.0055 74.3393 28.5718 74.5644 28.145C74.5929 28.0909 74.5987 28.0277 74.5806 27.9693C74.5625 27.9109 74.5219 27.8622 74.4679 27.8337C74.4411 27.8196 74.4118 27.8109 74.3817 27.8081C74.3515 27.8053 74.3211 27.8085 74.2922 27.8175C74.2338 27.8356 74.1851 27.8761 74.1566 27.9302C73.9281 28.3651 73.7111 28.806 73.513 29.2439C73.5004 29.2714 73.4934 29.3011 73.4923 29.3314C73.4913 29.3616 73.4962 29.3918 73.5069 29.4201C73.5176 29.4484 73.5339 29.4743 73.5546 29.4963C73.5754 29.5182 73.6004 29.5359 73.628 29.5481Z" fill="#292A2E"/>
<path d="M75.9018 48.2989C75.8827 48.2754 75.8593 48.2558 75.8327 48.2414C75.8061 48.2269 75.7769 48.2178 75.7468 48.2147C75.6861 48.2082 75.6252 48.2262 75.5777 48.2646C75.5302 48.3031 75.4999 48.3588 75.4935 48.4196C75.487 48.4803 75.505 48.5412 75.5434 48.5887C75.8481 48.963 76.1706 49.3343 76.5072 49.6929C76.5279 49.715 76.5528 49.7327 76.5804 49.7451C76.6079 49.7575 76.6377 49.7644 76.6679 49.7653C76.6982 49.7662 76.7283 49.7612 76.7566 49.7505C76.7848 49.7398 76.8107 49.7236 76.8328 49.7028C76.8548 49.6821 76.8725 49.6573 76.8849 49.6297C76.8974 49.6021 76.9042 49.5723 76.9051 49.5421C76.9061 49.5119 76.901 49.4818 76.8903 49.4535C76.8796 49.4252 76.8634 49.3993 76.8427 49.3773C76.5141 49.027 76.1972 48.6645 75.9018 48.2989Z" fill="#292A2E"/>
<path d="M78.692 21.9676C78.6466 21.9267 78.5869 21.9054 78.5258 21.9085C78.4648 21.9116 78.4075 21.9387 78.3664 21.984C78.0386 22.3473 77.7191 22.7185 77.4122 23.0883C77.3929 23.1116 77.3784 23.1385 77.3695 23.1674C77.3606 23.1964 77.3575 23.2267 77.3604 23.2569C77.3662 23.3177 77.3959 23.3738 77.443 23.4127C77.4901 23.4516 77.5508 23.4703 77.6116 23.4645C77.6725 23.4587 77.7285 23.429 77.7674 23.3819C78.0683 23.0174 78.3851 22.6511 78.7084 22.2932C78.7289 22.2709 78.7448 22.2447 78.7551 22.2161C78.7655 22.1876 78.77 22.1573 78.7685 22.127C78.7669 22.0967 78.7594 22.067 78.7463 22.0396C78.7331 22.0123 78.7147 21.9878 78.692 21.9676Z" fill="#292A2E"/>
<path d="M79.5092 51.7617C79.1253 51.4715 78.7503 51.1688 78.3939 50.8611C78.3472 50.8241 78.288 50.8065 78.2287 50.812C78.1694 50.8176 78.1145 50.8459 78.0756 50.8911C78.0366 50.9362 78.0167 50.9946 78.0199 51.0541C78.0231 51.1136 78.0491 51.1696 78.0927 51.2103C78.4567 51.5245 78.8398 51.8337 79.2312 52.1295C79.28 52.1664 79.3414 52.1824 79.402 52.1739C79.4625 52.1655 79.5172 52.1334 79.5541 52.0846C79.591 52.0358 79.6069 51.9744 79.5985 51.9138C79.5901 51.8533 79.558 51.7986 79.5092 51.7617Z" fill="#292A2E"/>
<path d="M73.943 45.3159C73.9149 45.2616 73.8663 45.2207 73.8081 45.2022C73.7498 45.1837 73.6866 45.1891 73.6323 45.2172C73.578 45.2454 73.5371 45.2939 73.5186 45.3522C73.5001 45.4105 73.5055 45.4737 73.5337 45.528C73.7572 45.9586 74.0028 46.387 74.2632 46.8009C74.2958 46.8526 74.3476 46.8893 74.4072 46.9028C74.4367 46.9095 74.4672 46.9103 74.497 46.9052C74.5269 46.9001 74.5554 46.8892 74.581 46.8731C74.6066 46.857 74.6288 46.8359 74.6463 46.8112C74.6637 46.7865 74.6762 46.7586 74.6829 46.7291C74.6896 46.6996 74.6904 46.6691 74.6853 46.6393C74.6802 46.6094 74.6693 46.5809 74.6532 46.5553C74.3996 46.1521 74.1604 45.7351 73.943 45.3159Z" fill="#292A2E"/>
<path d="M128.82 59.4667C128.339 59.4187 127.858 59.3732 127.376 59.33C127.346 59.3273 127.316 59.3306 127.287 59.3396C127.258 59.3487 127.231 59.3633 127.208 59.3827C127.184 59.4021 127.165 59.4259 127.151 59.4528C127.137 59.4796 127.129 59.5089 127.126 59.5391C127.123 59.5692 127.126 59.5996 127.136 59.6285C127.145 59.6574 127.159 59.6842 127.179 59.7074C127.198 59.7307 127.222 59.7499 127.249 59.7639C127.275 59.7779 127.305 59.7865 127.335 59.7892C127.816 59.8321 128.295 59.8776 128.774 59.9256H128.798C128.856 59.9247 128.912 59.9016 128.954 59.8608C128.997 59.8201 129.022 59.7648 129.025 59.7063C129.028 59.6477 129.008 59.5903 128.97 59.5455C128.932 59.5008 128.879 59.4722 128.82 59.4656V59.4667Z" fill="#292A2E"/>
<path d="M81.2703 19.4256C81.2293 19.3803 81.172 19.3531 81.1109 19.3499C81.0499 19.3468 80.9901 19.368 80.9447 19.4089C80.5829 19.736 80.2254 20.0718 79.8819 20.4077C79.8603 20.4288 79.843 20.454 79.8311 20.4818C79.8192 20.5097 79.8129 20.5396 79.8125 20.5698C79.8122 20.6001 79.8178 20.6302 79.829 20.6583C79.8403 20.6863 79.857 20.712 79.8781 20.7336C79.8993 20.7553 79.9245 20.7725 79.9523 20.7844C79.9801 20.7964 80.01 20.8027 80.0403 20.803C80.0706 20.8034 80.1006 20.7978 80.1287 20.7865C80.1568 20.7752 80.1824 20.7586 80.2041 20.7374C80.5433 20.4058 80.8963 20.0741 81.2535 19.7508C81.2762 19.7307 81.2946 19.7063 81.3077 19.679C81.3209 19.6516 81.3284 19.622 81.33 19.5917C81.3315 19.5615 81.3271 19.5312 81.3168 19.5027C81.3066 19.4742 81.2907 19.448 81.2703 19.4256Z" fill="#292A2E"/>
<path d="M110.699 58.4706L109.249 58.4283C109.219 58.4274 109.188 58.4325 109.16 58.4433C109.132 58.4541 109.106 58.4703 109.084 58.4911C109.062 58.5119 109.044 58.5368 109.032 58.5644C109.02 58.592 109.013 58.6218 109.012 58.652C109.011 58.6823 109.016 58.7124 109.027 58.7407C109.038 58.769 109.054 58.7949 109.075 58.8169C109.095 58.8389 109.12 58.8566 109.148 58.869C109.175 58.8814 109.205 58.8882 109.236 58.8891L110.685 58.9313H110.692C110.753 58.9322 110.812 58.9088 110.856 58.8663C110.9 58.8237 110.925 58.7655 110.926 58.7044C110.927 58.6433 110.903 58.5843 110.861 58.5405C110.818 58.4966 110.76 58.4715 110.699 58.4706Z" fill="#292A2E"/>
<path d="M164.571 79.9054C164.61 79.9053 164.647 79.8957 164.681 79.8776C164.714 79.8594 164.743 79.8332 164.764 79.8013C164.785 79.7695 164.797 79.7329 164.801 79.6949C164.804 79.6569 164.798 79.6187 164.783 79.5837C164.592 79.1412 164.392 78.6941 164.187 78.2551C164.174 78.2276 164.156 78.2029 164.133 78.1824C164.111 78.1619 164.085 78.146 164.056 78.1356C164.028 78.1252 163.997 78.1205 163.967 78.1218C163.937 78.1231 163.907 78.1304 163.88 78.1432C163.852 78.156 163.827 78.1741 163.807 78.1964C163.786 78.2188 163.77 78.2449 163.76 78.2734C163.75 78.3019 163.745 78.3322 163.746 78.3625C163.748 78.3928 163.755 78.4226 163.768 78.4501C163.971 78.8853 164.169 79.3278 164.358 79.766C164.376 79.8077 164.406 79.8431 164.444 79.8679C164.482 79.8927 164.526 79.9058 164.571 79.9054Z" fill="#292A2E"/>
<path d="M163.23 109.326C163.204 109.31 163.175 109.299 163.145 109.294C163.115 109.289 163.085 109.29 163.055 109.297C163.026 109.304 162.998 109.317 162.973 109.335C162.949 109.353 162.928 109.376 162.913 109.402C162.663 109.809 162.402 110.217 162.136 110.615C162.105 110.665 162.094 110.726 162.107 110.785C162.12 110.843 162.154 110.894 162.204 110.928C162.254 110.961 162.314 110.973 162.373 110.963C162.432 110.952 162.484 110.919 162.519 110.871C162.789 110.468 163.052 110.055 163.306 109.642C163.322 109.617 163.333 109.588 163.337 109.558C163.342 109.528 163.341 109.498 163.334 109.468C163.327 109.439 163.314 109.411 163.296 109.386C163.278 109.362 163.256 109.341 163.23 109.326Z" fill="#292A2E"/>
<path d="M158.587 115.152C158.268 115.506 157.937 115.861 157.603 116.207C157.582 116.229 157.566 116.255 157.555 116.283C157.544 116.311 157.539 116.341 157.539 116.372C157.54 116.402 157.546 116.432 157.558 116.459C157.57 116.487 157.588 116.512 157.61 116.533C157.632 116.554 157.657 116.571 157.685 116.582C157.714 116.593 157.744 116.598 157.774 116.598C157.804 116.597 157.834 116.59 157.862 116.578C157.889 116.566 157.914 116.549 157.935 116.527C158.272 116.177 158.607 115.818 158.929 115.461C158.95 115.438 158.965 115.412 158.975 115.383C158.985 115.355 158.99 115.325 158.988 115.294C158.987 115.264 158.979 115.234 158.966 115.207C158.953 115.18 158.935 115.155 158.912 115.135C158.89 115.115 158.864 115.099 158.835 115.089C158.806 115.079 158.776 115.074 158.746 115.076C158.716 115.078 158.686 115.085 158.659 115.098C158.631 115.111 158.607 115.129 158.587 115.152H158.587Z" fill="#292A2E"/>
<path d="M162.81 76.5097C162.824 76.5365 162.843 76.5603 162.866 76.5798C162.889 76.5993 162.916 76.614 162.945 76.6231C162.974 76.6322 163.004 76.6355 163.034 76.6329C163.064 76.6302 163.094 76.6217 163.121 76.6077C163.147 76.5937 163.171 76.5746 163.191 76.5514C163.21 76.5282 163.225 76.5014 163.234 76.4726C163.243 76.4437 163.246 76.4133 163.244 76.3831C163.241 76.353 163.233 76.3236 163.219 76.2968C162.997 75.8715 162.766 75.44 162.529 75.0151C162.5 74.9617 162.45 74.9222 162.391 74.9054C162.333 74.8886 162.27 74.8958 162.216 74.9254C162.163 74.955 162.123 75.0047 162.107 75.0634C162.09 75.1222 162.097 75.1852 162.127 75.2386C162.36 75.6601 162.59 76.0877 162.81 76.5097Z" fill="#292A2E"/>
<path d="M158.014 69.3127C157.969 69.2718 157.909 69.2506 157.848 69.2537C157.786 69.2569 157.729 69.2842 157.688 69.3297C157.647 69.3751 157.626 69.435 157.629 69.4961C157.632 69.5572 157.66 69.6145 157.705 69.6554C158.062 69.978 158.41 70.3119 158.737 70.6481C158.759 70.6698 158.784 70.6871 158.812 70.699C158.839 70.7109 158.869 70.7172 158.9 70.7176C158.93 70.718 158.96 70.7124 158.988 70.7011C159.016 70.6899 159.042 70.6732 159.063 70.6521C159.085 70.631 159.102 70.6058 159.114 70.578C159.126 70.5502 159.132 70.5203 159.133 70.4901C159.133 70.4598 159.127 70.4298 159.116 70.4017C159.105 70.3736 159.088 70.348 159.067 70.3264C158.733 69.9829 158.378 69.6421 158.014 69.3127Z" fill="#292A2E"/>
<path d="M161.209 112.33C161.16 112.293 161.099 112.277 161.038 112.286C160.978 112.294 160.923 112.326 160.886 112.375C160.601 112.753 160.301 113.137 159.997 113.509C159.978 113.533 159.964 113.56 159.955 113.589C159.946 113.618 159.943 113.648 159.947 113.678C159.95 113.708 159.959 113.738 159.973 113.764C159.987 113.791 160.007 113.814 160.03 113.834C160.054 113.853 160.081 113.867 160.11 113.876C160.139 113.884 160.169 113.887 160.199 113.884C160.229 113.881 160.259 113.872 160.285 113.858C160.312 113.843 160.335 113.824 160.355 113.8C160.662 113.422 160.964 113.036 161.254 112.653C161.272 112.629 161.286 112.601 161.294 112.572C161.302 112.543 161.303 112.512 161.299 112.482C161.295 112.452 161.285 112.423 161.269 112.397C161.254 112.371 161.233 112.348 161.209 112.33Z" fill="#292A2E"/>
<path d="M160.52 71.969C160.482 71.9211 160.427 71.8903 160.366 71.8833C160.305 71.8764 160.244 71.8938 160.197 71.9318C160.149 71.9699 160.118 72.0253 160.111 72.0861C160.104 72.1468 160.121 72.2078 160.159 72.2557C160.456 72.6292 160.742 73.0173 161.01 73.4076C161.028 73.4326 161.049 73.4539 161.075 73.4705C161.1 73.487 161.129 73.4984 161.158 73.504C161.188 73.5096 161.219 73.5092 161.248 73.503C161.278 73.4967 161.306 73.4847 161.331 73.4675C161.356 73.4504 161.378 73.4285 161.394 73.4031C161.411 73.3777 161.422 73.3493 161.428 73.3196C161.433 73.2898 161.433 73.2592 161.427 73.2295C161.42 73.1999 161.408 73.1717 161.391 73.1467C161.115 72.7473 160.822 72.3509 160.52 71.969Z" fill="#292A2E"/>
<path d="M167.624 95.6683C167.594 95.6658 167.563 95.6693 167.534 95.6787C167.506 95.6881 167.479 95.7031 167.456 95.723C167.433 95.7428 167.414 95.767 167.401 95.7941C167.387 95.8213 167.379 95.8508 167.377 95.8811C167.342 96.3582 167.295 96.8392 167.236 97.3106C167.232 97.3406 167.234 97.3712 167.242 97.4005C167.25 97.4297 167.264 97.4571 167.283 97.4811C167.301 97.505 167.324 97.525 167.351 97.5398C167.377 97.5547 167.407 97.5641 167.437 97.5676C167.446 97.5682 167.456 97.5682 167.465 97.5676C167.521 97.5676 167.576 97.547 167.618 97.5099C167.66 97.4727 167.687 97.4215 167.694 97.3658C167.753 96.8868 167.801 96.3978 167.837 95.9131C167.839 95.883 167.835 95.8528 167.826 95.8242C167.816 95.7955 167.801 95.7691 167.781 95.7463C167.762 95.7236 167.738 95.705 167.711 95.6916C167.683 95.6781 167.654 95.6702 167.624 95.6683Z" fill="#292A2E"/>
<path d="M167.878 92.2667C167.877 92.2364 167.87 92.2065 167.858 92.1789C167.845 92.1514 167.827 92.1266 167.804 92.1063C167.782 92.0859 167.755 92.0704 167.726 92.0605C167.698 92.0507 167.667 92.0467 167.637 92.0489C167.607 92.0502 167.577 92.0575 167.549 92.0703C167.522 92.0832 167.497 92.1014 167.477 92.1239C167.457 92.1463 167.441 92.1726 167.431 92.2012C167.421 92.2298 167.417 92.2601 167.418 92.2904C167.442 92.7694 167.453 93.253 167.454 93.7282C167.454 93.7893 167.478 93.8479 167.521 93.8911C167.564 93.9343 167.623 93.9586 167.684 93.9586C167.745 93.9586 167.804 93.9343 167.847 93.8911C167.89 93.8479 167.915 93.7893 167.915 93.7282C167.915 93.2442 167.903 92.753 167.878 92.2667Z" fill="#292A2E"/>
<path d="M167.16 99.2564C167.13 99.2501 167.099 99.2498 167.07 99.2556C167.04 99.2613 167.011 99.2729 166.986 99.2897C166.961 99.3065 166.939 99.3281 166.922 99.3534C166.906 99.3787 166.894 99.4071 166.888 99.4369C166.795 99.9029 166.687 100.374 166.57 100.837C166.555 100.897 166.564 100.959 166.595 101.012C166.626 101.065 166.677 101.103 166.736 101.118C166.755 101.122 166.774 101.125 166.793 101.125C166.844 101.125 166.894 101.108 166.935 101.076C166.975 101.045 167.004 101.001 167.017 100.951C167.136 100.48 167.245 100.001 167.34 99.5275C167.346 99.4978 167.347 99.4672 167.341 99.4374C167.335 99.4077 167.324 99.3794 167.307 99.3541C167.29 99.3289 167.268 99.3073 167.243 99.2905C167.218 99.2737 167.19 99.2621 167.16 99.2564Z" fill="#292A2E"/>
<path d="M165.861 83.291C165.886 83.291 165.911 83.2869 165.934 83.2788C165.963 83.2694 165.99 83.2544 166.013 83.2347C166.036 83.2149 166.055 83.1907 166.068 83.1636C166.082 83.1365 166.09 83.107 166.092 83.0768C166.094 83.0465 166.09 83.0162 166.08 82.9875C165.928 82.5332 165.765 82.071 165.595 81.6133C165.573 81.556 165.53 81.5096 165.475 81.4842C165.419 81.4588 165.356 81.4566 165.298 81.4779C165.241 81.4993 165.195 81.5425 165.169 81.5981C165.144 81.6537 165.142 81.7171 165.163 81.7744C165.332 82.2271 165.493 82.684 165.643 83.1334C165.658 83.1792 165.687 83.2191 165.727 83.2473C165.766 83.2756 165.813 83.2909 165.861 83.291Z" fill="#292A2E"/>
<path d="M164.933 106.128C164.905 106.115 164.876 106.108 164.846 106.106C164.815 106.105 164.785 106.109 164.757 106.12C164.728 106.13 164.702 106.146 164.679 106.166C164.657 106.186 164.639 106.211 164.626 106.238C164.423 106.668 164.207 107.102 163.984 107.525C163.955 107.58 163.949 107.643 163.967 107.701C163.985 107.76 164.026 107.808 164.08 107.837C164.107 107.851 164.136 107.86 164.166 107.863C164.196 107.865 164.227 107.862 164.256 107.853C164.285 107.844 164.311 107.83 164.335 107.811C164.358 107.791 164.377 107.767 164.391 107.741C164.62 107.31 164.837 106.871 165.043 106.435C165.056 106.408 165.063 106.378 165.065 106.348C165.066 106.317 165.062 106.287 165.052 106.259C165.041 106.23 165.026 106.204 165.005 106.182C164.985 106.159 164.96 106.141 164.933 106.128Z" fill="#292A2E"/>
<path d="M166.253 102.759C166.224 102.749 166.194 102.745 166.164 102.747C166.133 102.749 166.104 102.757 166.077 102.771C166.049 102.784 166.025 102.803 166.005 102.826C165.986 102.849 165.971 102.876 165.961 102.904C165.809 103.354 165.647 103.809 165.473 104.256C165.451 104.313 165.452 104.377 165.477 104.433C165.501 104.489 165.547 104.532 165.604 104.555C165.661 104.577 165.724 104.575 165.78 104.551C165.836 104.526 165.88 104.48 165.902 104.423C166.079 103.969 166.245 103.507 166.397 103.053C166.407 103.024 166.411 102.993 166.409 102.963C166.408 102.933 166.4 102.903 166.386 102.876C166.373 102.848 166.354 102.824 166.331 102.804C166.308 102.784 166.282 102.769 166.253 102.759Z" fill="#292A2E"/>
<path d="M132.425 59.8777C131.945 59.816 131.465 59.757 130.983 59.7006C130.924 59.697 130.866 59.7161 130.821 59.7539C130.776 59.7917 130.747 59.8454 130.74 59.9039C130.733 59.9624 130.749 60.0212 130.784 60.0684C130.819 60.1156 130.871 60.1475 130.929 60.1576C131.41 60.2139 131.889 60.2728 132.366 60.3342C132.376 60.3348 132.386 60.3348 132.396 60.3342C132.455 60.335 132.512 60.3131 132.555 60.2729C132.599 60.2328 132.625 60.1775 132.629 60.1186C132.632 60.0596 132.613 60.0014 132.575 59.9561C132.538 59.9108 132.484 59.8818 132.425 59.875V59.8777Z" fill="#292A2E"/>
<path d="M144.412 126.212C143.988 126.448 143.56 126.679 143.139 126.9C143.085 126.929 143.044 126.977 143.026 127.036C143.008 127.094 143.014 127.157 143.042 127.211C143.07 127.266 143.119 127.306 143.178 127.324C143.236 127.343 143.299 127.337 143.353 127.308C143.777 127.086 144.209 126.851 144.636 126.614C144.662 126.6 144.686 126.58 144.704 126.556C144.723 126.532 144.737 126.505 144.745 126.476C144.754 126.447 144.756 126.416 144.753 126.386C144.749 126.356 144.74 126.327 144.725 126.301C144.71 126.274 144.69 126.251 144.667 126.232C144.643 126.214 144.616 126.2 144.587 126.191C144.558 126.183 144.527 126.181 144.497 126.184C144.467 126.188 144.438 126.197 144.412 126.212Z" fill="#292A2E"/>
<path d="M146.536 63.4264C146.591 63.427 146.644 63.408 146.686 63.3728C146.728 63.3376 146.756 63.2887 146.766 63.2346C146.775 63.1806 146.764 63.1251 146.736 63.078C146.708 63.031 146.664 62.9955 146.612 62.9779C146.16 62.8233 145.695 62.6713 145.228 62.5263C145.199 62.5162 145.168 62.5121 145.137 62.5142C145.106 62.5163 145.076 62.5246 145.048 62.5386C145.021 62.5526 144.996 62.5719 144.976 62.5955C144.956 62.6192 144.941 62.6465 144.932 62.676C144.923 62.7056 144.92 62.7366 144.923 62.7674C144.926 62.7981 144.935 62.8279 144.95 62.8551C144.965 62.8822 144.985 62.9061 145.009 62.9253C145.034 62.9445 145.061 62.9586 145.091 62.9668C145.554 63.1104 146.016 63.2608 146.462 63.4139C146.486 63.4221 146.511 63.4263 146.536 63.4264Z" fill="#292A2E"/>
<path d="M143.294 62.2029C143.302 62.1737 143.304 62.1432 143.301 62.1131C143.297 62.0831 143.287 62.0541 143.272 62.0278C143.257 62.0015 143.237 61.9786 143.212 61.9602C143.188 61.9418 143.161 61.9284 143.132 61.9208C142.669 61.7966 142.195 61.6752 141.723 61.5598C141.663 61.5453 141.601 61.555 141.548 61.5867C141.496 61.6185 141.459 61.6697 141.444 61.729C141.43 61.7884 141.439 61.8511 141.471 61.9034C141.503 61.9556 141.554 61.9931 141.613 62.0076C142.083 62.1218 142.554 62.2429 143.013 62.3659C143.042 62.374 143.073 62.3762 143.103 62.3724C143.133 62.3685 143.162 62.3587 143.188 62.3436C143.215 62.3284 143.238 62.3081 143.256 62.284C143.274 62.2599 143.288 62.2323 143.295 62.2029H143.294Z" fill="#292A2E"/>
<path d="M139.594 61.0759C139.128 60.9773 138.648 60.8806 138.168 60.7888C138.108 60.7773 138.046 60.7901 137.996 60.8244C137.945 60.8587 137.91 60.9117 137.899 60.9718C137.887 61.0318 137.9 61.0939 137.934 61.1445C137.969 61.1951 138.022 61.23 138.082 61.2415C138.558 61.3329 139.034 61.4289 139.499 61.5267C139.559 61.5394 139.621 61.5277 139.672 61.4944C139.723 61.461 139.759 61.4087 139.772 61.3489C139.785 61.2891 139.773 61.2268 139.74 61.1756C139.706 61.1244 139.654 61.0885 139.594 61.0759Z" fill="#292A2E"/>
<path d="M147.516 124.36C147.113 124.617 146.699 124.874 146.287 125.122C146.244 125.148 146.211 125.187 146.192 125.234C146.173 125.281 146.171 125.333 146.184 125.381C146.198 125.43 146.227 125.473 146.267 125.503C146.307 125.533 146.356 125.55 146.407 125.55C146.449 125.55 146.49 125.538 146.526 125.516C146.941 125.265 147.357 125.007 147.763 124.748C147.815 124.715 147.851 124.663 147.865 124.604C147.878 124.544 147.867 124.481 147.834 124.43C147.801 124.378 147.749 124.342 147.69 124.329C147.63 124.315 147.567 124.326 147.516 124.359V124.36Z" fill="#292A2E"/>
<path d="M136.018 60.4054C135.551 60.3292 135.066 60.2531 134.582 60.1788C134.521 60.1697 134.459 60.1851 134.41 60.2215C134.361 60.2579 134.328 60.3124 134.319 60.373C134.31 60.4336 134.325 60.4953 134.362 60.5446C134.398 60.5939 134.453 60.6267 134.513 60.6358C134.997 60.7085 135.478 60.7843 135.942 60.8612C135.955 60.8635 135.968 60.8646 135.98 60.8646C136.037 60.8629 136.091 60.8404 136.132 60.8014C136.173 60.7624 136.198 60.7096 136.203 60.6531C136.208 60.5967 136.192 60.5404 136.158 60.4952C136.124 60.4499 136.074 60.4188 136.018 60.4077L136.018 60.4054Z" fill="#292A2E"/>
<path d="M153.363 120.123C152.994 120.428 152.615 120.732 152.237 121.028C152.189 121.065 152.158 121.121 152.15 121.181C152.143 121.242 152.16 121.303 152.197 121.351C152.235 121.399 152.29 121.43 152.351 121.438C152.412 121.445 152.473 121.428 152.521 121.391C152.902 121.092 153.282 120.785 153.656 120.479C153.704 120.44 153.733 120.384 153.739 120.323C153.745 120.262 153.726 120.201 153.688 120.154C153.649 120.107 153.593 120.077 153.532 120.071C153.471 120.066 153.41 120.084 153.363 120.123Z" fill="#292A2E"/>
<path d="M156.068 117.733C155.725 118.06 155.366 118.389 155.007 118.711C154.964 118.753 154.94 118.809 154.938 118.868C154.936 118.928 154.957 118.985 154.996 119.03C155.036 119.074 155.091 119.101 155.15 119.105C155.209 119.11 155.268 119.092 155.314 119.054C155.677 118.729 156.037 118.397 156.385 118.066C156.43 118.024 156.456 117.966 156.457 117.905C156.459 117.844 156.436 117.785 156.394 117.74C156.352 117.696 156.294 117.67 156.233 117.669C156.171 117.667 156.112 117.69 156.068 117.732V117.733Z" fill="#292A2E"/>
<path d="M156.184 68.3339C156.233 68.3351 156.281 68.3206 156.321 68.2926C156.361 68.2645 156.391 68.2243 156.407 68.178C156.422 68.1316 156.422 68.0815 156.407 68.0349C156.392 67.9884 156.363 67.948 156.323 67.9196C155.942 67.6321 155.54 67.3484 155.132 67.0735C155.107 67.0536 155.079 67.039 155.048 67.0308C155.017 67.0226 154.985 67.0208 154.953 67.0256C154.922 67.0304 154.892 67.0417 154.865 67.0587C154.838 67.0757 154.815 67.0982 154.797 67.1246C154.779 67.151 154.767 67.1808 154.762 67.2121C154.756 67.2434 154.757 67.2756 154.764 67.3066C154.771 67.3376 154.785 67.3667 154.804 67.3921C154.823 67.4175 154.848 67.4387 154.876 67.4543C155.277 67.7235 155.671 68.0033 156.046 68.2859C156.085 68.3167 156.134 68.3335 156.184 68.3339Z" fill="#292A2E"/>
<path d="M150.503 122.33C150.119 122.609 149.721 122.889 149.323 123.163C149.272 123.198 149.238 123.251 149.227 123.312C149.215 123.372 149.229 123.434 149.263 123.484C149.298 123.535 149.351 123.57 149.411 123.581C149.471 123.592 149.534 123.579 149.584 123.544C149.986 123.268 150.387 122.985 150.774 122.707C150.824 122.671 150.857 122.617 150.867 122.556C150.876 122.496 150.862 122.434 150.826 122.385C150.79 122.335 150.736 122.302 150.676 122.292C150.615 122.283 150.554 122.298 150.504 122.333L150.503 122.33Z" fill="#292A2E"/>
<path d="M153.158 66.3545C153.208 66.3544 153.258 66.3376 153.298 66.3065C153.338 66.2755 153.367 66.232 153.38 66.1829C153.393 66.1337 153.39 66.0816 153.37 66.0347C153.35 65.9878 153.316 65.9487 153.272 65.9235C152.858 65.6881 152.426 65.4551 151.988 65.2308C151.933 65.203 151.87 65.1979 151.812 65.2168C151.754 65.2356 151.705 65.2767 151.678 65.3312C151.65 65.3856 151.645 65.4488 151.664 65.507C151.682 65.5652 151.724 65.6135 151.778 65.6413C152.21 65.8622 152.636 66.0921 153.044 66.3244C153.079 66.3441 153.118 66.3544 153.158 66.3545Z" fill="#292A2E"/>
<path d="M149.914 64.7362C149.968 64.7387 150.021 64.7219 150.064 64.6887C150.107 64.6555 150.136 64.6081 150.148 64.555C150.159 64.502 150.151 64.4467 150.125 64.399C150.099 64.3513 150.057 64.3144 150.006 64.2949C149.57 64.1045 149.118 63.9141 148.661 63.7336C148.605 63.7131 148.543 63.7154 148.488 63.74C148.433 63.7646 148.39 63.8095 148.368 63.8653C148.346 63.9211 148.346 63.9834 148.369 64.0388C148.392 64.0943 148.436 64.1386 148.491 64.1624C148.943 64.3413 149.39 64.5279 149.821 64.7168C149.85 64.7296 149.882 64.7362 149.914 64.7362Z" fill="#292A2E"/>
<path d="M83.1953 17.519C83.0016 17.6713 82.8101 17.8237 82.6207 17.976C82.5971 17.995 82.5776 18.0185 82.5631 18.0451C82.5487 18.0716 82.5396 18.1008 82.5364 18.1309C82.5333 18.161 82.536 18.1914 82.5446 18.2204C82.5532 18.2494 82.5674 18.2765 82.5864 18.3C82.6054 18.3235 82.6289 18.3431 82.6555 18.3576C82.6821 18.372 82.7112 18.3811 82.7413 18.3843C82.7714 18.3875 82.8018 18.3847 82.8309 18.3761C82.8599 18.3675 82.8869 18.3533 82.9105 18.3343C83.0978 18.182 83.2873 18.0313 83.479 17.8823C83.5028 17.8637 83.5228 17.8405 83.5377 17.8142C83.5526 17.7879 83.5622 17.7588 83.5659 17.7288C83.5695 17.6988 83.5673 17.6683 83.5592 17.6391C83.5511 17.61 83.5374 17.5827 83.5188 17.5588C83.5001 17.535 83.477 17.515 83.4506 17.5001C83.4243 17.4852 83.3953 17.4756 83.3653 17.4719C83.3352 17.4682 83.3047 17.4705 83.2756 17.4786C83.2464 17.4867 83.2191 17.5004 83.1953 17.519Z" fill="#292A2E"/>
<path d="M82.1484 10.8647L83.1526 18.2298L108.596 0.820801L82.1484 10.8647Z" fill="#F9B420"/>
<path opacity="0.2" d="M82.1484 10.8647L83.1526 18.2298L108.596 0.820801L82.1484 10.8647Z" fill="#0A0A0A"/>
<path d="M83.8221 12.873L83.1523 18.2295L102.57 4.50342L83.8221 12.873Z" fill="#F9B420"/>
<path opacity="0.1" d="M83.8221 12.873L83.1523 18.2295L102.57 4.50342L83.8221 12.873Z" fill="#0A0A0A"/>
<path d="M79.1328 7.18176L108.594 0.820801L89.8457 21.2429L83.8199 12.8733L108.594 0.820801L82.1459 10.8647L79.1328 7.18176Z" fill="#F9B420"/>
<path d="M147.676 24.1343H91.8671C87.2504 24.1343 83.5078 27.8769 83.5078 32.4936V163.687C83.5078 168.304 87.2504 172.046 91.8671 172.046H147.676C152.293 172.046 156.035 168.304 156.035 163.687V32.4936C156.035 27.8769 152.293 24.1343 147.676 24.1343Z" fill="#292A2E"/>
<path d="M147.649 26.7446H91.8926C88.7224 26.7446 86.1523 29.3146 86.1523 32.4849V163.501C86.1523 166.671 88.7224 169.241 91.8926 169.241H147.649C150.819 169.241 153.389 166.671 153.389 163.501V32.4849C153.389 29.3146 150.819 26.7446 147.649 26.7446Z" fill="white"/>
<path d="M106 25.6655H133.541V28.5153C133.541 28.92 133.461 29.3207 133.306 29.6946C133.151 30.0685 132.924 30.4082 132.638 30.6944C132.352 30.9805 132.012 31.2075 131.638 31.3624C131.265 31.5173 130.864 31.597 130.459 31.597H109.082C108.264 31.597 107.481 31.2723 106.903 30.6944C106.325 30.1164 106 29.3326 106 28.5153V25.6655Z" fill="#292A2E"/>
<path opacity="0.8" d="M135.536 125.55H106.129C104.397 125.55 102.992 126.955 102.992 128.688V137.112C102.992 138.845 104.397 140.249 106.129 140.249H135.536C137.269 140.249 138.673 138.845 138.673 137.112V128.688C138.673 126.955 137.269 125.55 135.536 125.55Z" fill="#00681D"/>
<path d="M138.676 137.113V138.557C138.676 139.389 138.345 140.186 137.757 140.775C137.169 141.363 136.371 141.693 135.539 141.693H106.133C105.301 141.693 104.503 141.363 103.915 140.775C103.327 140.186 102.996 139.389 102.996 138.557V137.113C102.996 137.525 103.077 137.933 103.235 138.313C103.392 138.694 103.623 139.04 103.915 139.331C104.206 139.622 104.552 139.853 104.932 140.011C105.313 140.169 105.721 140.25 106.133 140.25H135.539C136.371 140.25 137.169 139.919 137.757 139.331C138.345 138.743 138.676 137.945 138.676 137.113Z" fill="#00681D"/>
<path d="M118.872 137.242C118.749 137.243 118.63 137.198 118.537 137.118L115.17 134.234C115.07 134.144 115.01 134.018 115.001 133.884C114.992 133.749 115.037 133.617 115.124 133.515C115.212 133.413 115.336 133.349 115.47 133.337C115.604 133.325 115.737 133.366 115.842 133.451L118.828 136.011L125.778 128.407C125.824 128.357 125.879 128.316 125.94 128.287C126.001 128.259 126.068 128.242 126.135 128.239C126.203 128.236 126.27 128.246 126.334 128.27C126.398 128.293 126.456 128.328 126.506 128.374C126.556 128.419 126.597 128.474 126.626 128.536C126.654 128.597 126.671 128.663 126.674 128.731C126.677 128.799 126.667 128.866 126.643 128.93C126.62 128.994 126.585 129.052 126.539 129.102L119.252 137.074C119.204 137.127 119.145 137.17 119.08 137.199C119.014 137.228 118.943 137.243 118.872 137.242Z" fill="white"/>
<path d="M128.129 166.731C127.715 166.257 127.402 165.704 127.209 165.106C127.015 164.508 126.946 163.876 127.005 163.25C127.064 162.624 127.249 162.016 127.551 161.464C127.852 160.912 128.263 160.427 128.758 160.039C130.728 158.49 133.62 158.945 135.269 160.832L137.637 163.769L130.204 137.153C129.878 136.037 130 134.839 130.544 133.812C131.089 132.786 132.012 132.012 133.118 131.655C133.674 131.489 134.257 131.435 134.834 131.496C135.411 131.558 135.97 131.734 136.479 132.014C136.987 132.294 137.434 132.673 137.794 133.127C138.155 133.582 138.421 134.105 138.577 134.664L141.688 145.804C141.716 145.787 141.745 145.772 141.776 145.761C141.692 144.546 142.09 143.346 142.883 142.422C143.676 141.498 144.802 140.923 146.016 140.822C147.078 140.747 148.134 141.035 149.01 141.64C149.887 142.245 150.531 143.13 150.837 144.15L151.332 145.713C151.386 145.72 151.437 145.737 151.485 145.762C151.4 144.669 151.706 143.581 152.35 142.692C152.993 141.804 153.931 141.173 154.996 140.912C156.163 140.654 157.384 140.846 158.415 141.451C159.446 142.055 160.211 143.027 160.555 144.171L161.753 147.967C161.776 147.9 161.815 147.839 161.867 147.791C161.918 147.743 161.981 147.708 162.05 147.69C162.128 147.672 162.21 147.677 162.285 147.705C162.473 146.737 162.965 145.855 163.69 145.187C164.415 144.519 165.335 144.101 166.315 143.993C168.538 143.733 170.6 145.235 171.274 147.37L177.641 167.42C179.038 171.849 179.082 176.594 177.765 181.047C176.448 185.501 173.831 189.46 170.25 192.416C167.165 194.963 163.208 196.203 159.221 195.873C155.235 195.543 151.535 193.668 148.912 190.648L128.129 166.731Z" fill="#E98862"/>
<g opacity="0.2">
<path d="M145.257 157.06C145.261 157.009 145.257 156.958 145.244 156.908L142.346 146.051C142.333 145.994 142.308 145.941 142.273 145.895C142.239 145.848 142.195 145.809 142.145 145.78C142.096 145.75 142.04 145.731 141.983 145.723C141.926 145.715 141.867 145.719 141.811 145.734C141.755 145.748 141.703 145.774 141.657 145.81C141.611 145.845 141.573 145.89 141.544 145.94C141.516 145.991 141.498 146.046 141.491 146.104C141.485 146.161 141.489 146.22 141.506 146.275L144.403 157.133C144.429 157.231 144.489 157.318 144.573 157.377C144.656 157.435 144.758 157.463 144.86 157.454C144.961 157.446 145.057 157.401 145.129 157.329C145.202 157.257 145.247 157.162 145.256 157.06H145.257Z" fill="#243B25"/>
<path d="M154.055 154.701C154.059 154.649 154.054 154.596 154.04 154.546L151.697 146.03C151.663 145.923 151.589 145.833 151.49 145.779C151.391 145.726 151.275 145.712 151.167 145.742C151.058 145.772 150.966 145.843 150.908 145.94C150.851 146.037 150.833 146.152 150.859 146.262L153.203 154.778C153.23 154.876 153.291 154.961 153.374 155.019C153.458 155.077 153.559 155.103 153.661 155.094C153.762 155.085 153.857 155.041 153.929 154.969C154.001 154.897 154.046 154.803 154.055 154.701H154.055Z" fill="#243B25"/>
<path d="M163.595 152.2C163.599 152.152 163.595 152.103 163.583 152.055L162.571 148.008C162.543 147.896 162.472 147.8 162.373 147.741C162.274 147.681 162.156 147.664 162.044 147.692C161.932 147.72 161.836 147.791 161.777 147.89C161.718 147.988 161.7 148.107 161.728 148.219L162.74 152.266C162.765 152.366 162.824 152.453 162.907 152.513C162.991 152.573 163.093 152.602 163.195 152.594C163.297 152.586 163.394 152.542 163.467 152.47C163.54 152.398 163.585 152.303 163.595 152.2Z" fill="#243B25"/>
</g>
<path d="M139.429 185.302L183.143 171.499C184.111 171.193 185.16 171.283 186.062 171.749C186.964 172.215 187.644 173.018 187.955 173.984L191.085 183.71C191.242 184.195 191.299 184.707 191.256 185.216C191.212 185.724 191.067 186.219 190.83 186.67C190.593 187.122 190.268 187.522 189.875 187.847C189.482 188.172 189.027 188.415 188.539 188.563L145.147 201.657C144.218 201.937 143.217 201.855 142.346 201.428C141.475 201 140.798 200.259 140.451 199.353L136.999 190.336C136.812 189.847 136.727 189.325 136.75 188.802C136.772 188.279 136.9 187.766 137.128 187.294C137.356 186.823 137.677 186.403 138.073 186.06C138.469 185.718 138.93 185.46 139.429 185.302Z" fill="#F9B420"/>
<path opacity="0.18" d="M139.429 185.302L183.143 171.499C184.111 171.193 185.16 171.283 186.062 171.749C186.964 172.215 187.644 173.018 187.955 173.984L191.085 183.71C191.242 184.195 191.299 184.707 191.256 185.216C191.212 185.724 191.067 186.219 190.83 186.67C190.593 187.122 190.268 187.522 189.875 187.847C189.482 188.172 189.027 188.415 188.539 188.563L145.147 201.657C144.218 201.937 143.217 201.855 142.346 201.428C141.475 201 140.798 200.259 140.451 199.353L136.999 190.336C136.812 189.847 136.727 189.325 136.75 188.802C136.772 188.279 136.9 187.766 137.128 187.294C137.356 186.823 137.677 186.403 138.073 186.06C138.469 185.718 138.93 185.46 139.429 185.302Z" fill="white"/>
<path d="M121.483 106.35C133.125 106.256 142.486 96.7406 142.391 85.0983C142.296 73.456 132.781 64.095 121.139 64.1899C109.497 64.2849 100.136 73.7998 100.23 85.4421C100.325 97.0844 109.84 106.445 121.483 106.35Z" fill="#243B25"/>
<path d="M121.324 86.2239C126.193 86.1842 130.108 82.2047 130.068 77.3354C130.029 72.4661 126.049 68.551 121.18 68.5907C116.311 68.6304 112.395 72.6099 112.435 77.4792C112.475 82.3484 116.454 86.2636 121.324 86.2239Z" fill="white"/>
<path d="M104.683 98.2367C106.673 100.785 109.222 102.842 112.134 104.248C115.046 105.654 118.242 106.372 121.475 106.346C124.709 106.319 127.893 105.55 130.781 104.096C133.669 102.643 136.185 100.545 138.133 97.964C136.034 95.5866 133.449 93.6875 130.553 92.3953C127.657 91.103 124.517 90.4477 121.346 90.4735C118.175 90.4994 115.046 91.2058 112.171 92.5451C109.297 93.8845 106.743 95.8254 104.683 98.2367Z" fill="white"/>
<path d="M99.9321 85.4446C99.8974 81.2165 101.117 77.0731 103.438 73.5384C105.758 70.0037 109.074 67.2363 112.967 65.5863C116.86 63.9364 121.155 63.4778 125.308 64.2688C129.462 65.0597 133.287 67.0645 136.302 70.0298C139.316 72.995 141.383 76.7874 142.242 80.9275C143.1 85.0676 142.712 89.3693 141.126 93.2887C139.54 97.2081 136.827 100.569 133.331 102.947C129.834 105.324 125.712 106.612 121.484 106.646C115.816 106.686 110.364 104.477 106.324 100.502C102.283 96.5271 99.9848 91.112 99.9321 85.4446ZM100.526 85.4397C100.558 89.5505 101.809 93.5593 104.12 96.9591C106.431 100.359 109.699 102.997 113.509 104.54C117.319 106.083 121.502 106.461 125.527 105.627C129.552 104.793 133.24 102.783 136.123 99.8532C139.007 96.923 140.957 93.2036 141.726 89.1654C142.495 85.1271 142.05 80.9514 140.446 77.1663C138.842 73.3812 136.152 70.1567 132.716 67.9006C129.279 65.6445 125.251 64.4583 121.14 64.4918C115.63 64.5427 110.366 66.7767 106.502 70.7037C102.637 74.6308 100.488 79.9302 100.526 85.4397Z" fill="#243B25"/>
</svg>
