<svg width="31" height="30" viewBox="0 0 31 30" fill="none" xmlns="http://www.w3.org/2000/svg">
<path d="M25.917 23.372C27.2634 21.7521 28.1998 19.8318 28.647 17.7735C29.0943 15.7151 29.0392 13.5793 28.4864 11.5468C27.9337 9.51426 26.8995 7.64475 25.4714 6.09642C24.0433 4.54809 22.2633 3.3665 20.282 2.65159C18.3006 1.93668 16.1763 1.70949 14.0886 1.98924C12.0009 2.26899 10.0112 3.04745 8.28802 4.25876C6.5648 5.47008 5.15867 7.07861 4.18859 8.94829C3.2185 10.818 2.713 12.8938 2.71485 15.0002C2.71556 18.0622 3.79461 21.0262 5.76266 23.372L5.74391 23.388C5.80954 23.4667 5.88454 23.5342 5.95204 23.612C6.03641 23.7086 6.12735 23.7995 6.21454 23.8933C6.47704 24.1783 6.74704 24.452 7.03016 24.7089C7.11641 24.7877 7.20547 24.8608 7.29266 24.9358C7.59266 25.1945 7.9011 25.4402 8.22079 25.6689C8.26204 25.697 8.29954 25.7336 8.34079 25.7627V25.7514C10.5365 27.2966 13.1559 28.1258 15.8408 28.1258C18.5257 28.1258 21.1451 27.2966 23.3408 25.7514V25.7627C23.382 25.7336 23.4186 25.697 23.4608 25.6689C23.7795 25.4392 24.0889 25.1945 24.3889 24.9358C24.4761 24.8608 24.5652 24.7867 24.6514 24.7089C24.9345 24.4511 25.2045 24.1783 25.467 23.8933C25.5542 23.7995 25.6442 23.7086 25.7295 23.612C25.7961 23.5342 25.872 23.4667 25.9377 23.387L25.917 23.372ZM15.8399 7.50016C16.6742 7.50016 17.4899 7.74759 18.1837 8.21115C18.8774 8.67471 19.4182 9.33359 19.7375 10.1045C20.0568 10.8753 20.1403 11.7236 19.9775 12.5419C19.8148 13.3603 19.413 14.112 18.823 14.702C18.233 15.292 17.4812 15.6938 16.6629 15.8566C15.8445 16.0194 14.9963 15.9358 14.2254 15.6165C13.4545 15.2972 12.7956 14.7565 12.3321 14.0627C11.8685 13.369 11.6211 12.5533 11.6211 11.7189C11.6211 10.6 12.0656 9.52697 12.8567 8.73581C13.6479 7.94464 14.721 7.50016 15.8399 7.50016ZM8.34641 23.372C8.36267 22.1411 8.86293 20.966 9.73893 20.101C10.6149 19.2361 11.7963 18.7508 13.0273 18.7502H18.6524C19.8834 18.7508 21.0648 19.2361 21.9408 20.101C22.8168 20.966 23.317 22.1411 23.3333 23.372C21.2772 25.2248 18.6076 26.2502 15.8399 26.2502C13.0721 26.2502 10.4025 25.2248 8.34641 23.372Z" fill="#243B25" fill-opacity="0.6"/>
</svg>
