<svg width="31" height="30" viewBox="0 0 31 30" fill="none" xmlns="http://www.w3.org/2000/svg">
<path d="M4.5066 9.86792L4.50771 9.90266C4.51709 10.1966 4.4832 10.4903 4.4071 10.7744L4.13401 11.7942L4.09934 11.785L4.13401 11.7942C3.81823 12.9732 3.73074 14.2589 4.39839 15.2651C4.90358 16.0251 5.58697 16.65 6.38902 17.0854C7.19108 17.5208 8.08745 17.7534 8.99999 17.7629L9.03551 17.7633V17.7988V18.5165V18.5524H8.99962H7.24119V19.1984H10.5786V18.5524H9.71735H9.68146V18.5165V17.7625V17.7305L9.71333 17.7269C10.8043 17.6041 11.8334 17.1631 12.6735 16.461C12.1262 16.6584 11.5483 16.7591 10.9655 16.7581C10.9655 16.7581 10.9654 16.7581 10.9654 16.7581L10.9655 16.7222C8.30737 16.7222 6.12871 14.6465 6.12871 12.057C6.12871 11.9618 6.16652 11.8705 6.23382 11.8032C6.30112 11.7359 6.3924 11.6981 6.48758 11.6981C6.58275 11.6981 6.67403 11.7359 6.74133 11.8032C6.80863 11.8705 6.84644 11.9618 6.84644 12.057C6.84644 14.2242 8.67736 16.0045 10.9655 16.0045C12.2305 16.0045 13.3591 15.4586 14.1134 14.6031L4.5066 9.86792ZM4.5066 9.86792H4.47184M4.5066 9.86792H4.47184M14.5566 13.2893C14.5566 13.2893 14.5566 13.2893 14.5566 13.2892L14.5918 13.2961L14.5566 13.2893ZM14.5566 13.2893C14.6893 12.6089 14.8861 11.9233 15.3089 11.3653M14.5566 13.2893L15.3089 11.3653M4.47184 9.86792H3.22695C2.61943 9.86792 2.31532 9.13358 2.74489 8.70402L5.82609 5.62282C6.25565 5.19325 6.98999 5.49736 6.98999 6.10488V6.67403V6.70992H7.02587H7.51751C8.14445 6.70992 8.43903 7.48482 7.97025 7.90143L7.24534 8.54559L7.22398 8.56458L7.2377 8.58965L8.42913 10.7669C8.61121 11.0996 8.89217 11.3675 9.23315 11.5336C9.57414 11.6997 9.95831 11.7558 10.3325 11.6941L15.039 10.9178C15.2898 10.8765 15.4626 11.1626 15.3089 11.3653L15.3089 11.3653M4.47184 9.86792L15.3089 11.3653M15.3375 11.387C15.5108 11.1584 15.316 10.8358 15.0332 10.8824L10.3267 11.6586C9.9598 11.7192 9.58317 11.6642 9.24887 11.5014C8.91457 11.3385 8.63912 11.0758 8.46061 10.7496L7.26918 8.57242L7.99408 7.92826C8.48752 7.48973 8.17746 6.67403 7.51751 6.67403L15.3375 11.387ZM6.88424 7.94373L6.90589 7.98319L6.93954 7.95329L7.54135 7.41859L7.61193 7.35587H7.51751H7.02587C6.84504 7.35587 6.67161 7.28404 6.54374 7.15617C6.41587 7.0283 6.34403 6.85487 6.34403 6.67403V6.10488V6.01824L6.28277 6.0795L5.33394 7.02833L5.25346 7.10881L5.36554 7.08905C5.645 7.0398 5.93287 7.07942 6.18863 7.20234C6.44438 7.32527 6.65515 7.5253 6.79127 7.77429L6.79129 7.77435L6.88424 7.94373ZM4.26495 8.18963L4.28466 8.07761L4.20423 8.15804L3.20157 9.1607L3.14031 9.22196H3.22695H4.36059H4.40699L4.39533 9.17706L4.28839 8.76508L4.28837 8.76503C4.2393 8.57714 4.23131 8.38088 4.26495 8.18963ZM5.41099 8.50424C5.51568 8.50424 5.61609 8.46265 5.69012 8.38862C5.76415 8.31459 5.80574 8.21418 5.80574 8.10949C5.80574 8.00479 5.76415 7.90439 5.69012 7.83036C5.61609 7.75633 5.51568 7.71474 5.41099 7.71474C5.30629 7.71474 5.20589 7.75633 5.13186 7.83036C5.05783 7.90439 5.01624 8.00479 5.01624 8.10949C5.01624 8.21418 5.05783 8.31459 5.13186 8.38862C5.20589 8.46265 5.30629 8.50424 5.41099 8.50424Z" fill="#9E9E9E" stroke="#9E9E9E" stroke-width="0.0717726"/>
<path d="M17.1394 6.42358L17.1405 6.45832C17.1499 6.75225 17.116 7.04596 17.0399 7.33002L16.7668 8.34991L16.7322 8.34063L16.7668 8.34991C16.451 9.5289 16.3636 10.8145 17.0312 11.8208C17.5364 12.5808 18.2198 13.2057 19.0218 13.6411C19.8239 14.0764 20.7203 14.309 21.6328 14.3186L21.6683 14.3189V14.3545V15.0722V15.1081H21.6324H19.874V15.754H23.2114V15.1081H22.3502H22.3143V15.0722V14.3182V14.2861L22.3461 14.2825C23.4371 14.1597 24.4662 13.7187 25.3063 13.0167C24.759 13.214 24.1811 13.3147 23.5983 13.3138C23.5983 13.3138 23.5982 13.3138 23.5982 13.3138L23.5983 13.2779C20.9402 13.2779 18.7615 11.2022 18.7615 8.61265C18.7615 8.51747 18.7993 8.42619 18.8666 8.35889C18.9339 8.29159 19.0252 8.25378 19.1204 8.25378C19.2156 8.25378 19.3068 8.29159 19.3741 8.35889C19.4414 8.42619 19.4793 8.51747 19.4793 8.61265C19.4793 10.7798 21.3102 12.5601 23.5983 12.5601C24.8633 12.5601 25.9919 12.0143 26.7462 11.1588L17.1394 6.42358ZM17.1394 6.42358H17.1047M17.1394 6.42358H17.1047M27.1894 9.84493C27.1894 9.84492 27.1894 9.84492 27.1894 9.84491L27.2246 9.8518L27.1894 9.84493ZM27.1894 9.84493C27.3221 9.16457 27.5189 8.47892 27.9417 7.92097M27.1894 9.84493L27.9417 7.92097M17.1047 6.42358H15.8598C15.2522 6.42358 14.9481 5.68925 15.3777 5.25968L18.4589 2.17848C18.8885 1.74892 19.6228 2.05302 19.6228 2.66054V3.2297V3.26558H19.6587H20.1503C20.7773 3.26558 21.0718 4.04048 20.6031 4.4571L19.8782 5.10126L19.8568 5.12024L19.8705 5.14531L21.0619 7.32253C21.244 7.65526 21.525 7.92319 21.866 8.08929C22.207 8.25539 22.5911 8.31145 22.9653 8.24971L27.6718 7.47349C27.9226 7.43212 28.0954 7.71824 27.9417 7.92097L27.9417 7.92097M17.1047 6.42358L27.9417 7.92097M27.9703 7.94265C28.1436 7.71405 27.9488 7.39143 27.666 7.43809L22.9595 8.21431C22.5926 8.27483 22.216 8.21987 21.8817 8.05703C21.5474 7.89419 21.2719 7.63151 21.0934 7.30531L19.902 5.12808L20.6269 4.48392C21.1203 4.04539 20.8103 3.2297 20.1503 3.2297L27.9703 7.94265ZM19.5171 4.49939L19.5387 4.53885L19.5723 4.50896L20.1742 3.97425L20.2447 3.91154H20.1503H19.6587C19.4778 3.91154 19.3044 3.8397 19.1766 3.71183C19.0487 3.58396 18.9768 3.41053 18.9768 3.2297V2.66054V2.5739L18.9156 2.63516L17.9667 3.584L17.8863 3.66447L17.9984 3.64472C18.2778 3.59546 18.5657 3.63508 18.8214 3.75801C19.0772 3.88093 19.288 4.08097 19.4241 4.32996L19.4241 4.33001L19.5171 4.49939ZM16.8978 4.74529L16.9175 4.63328L16.837 4.7137L15.8344 5.71636L15.7731 5.77763H15.8598H16.9934H17.0398L17.0281 5.73272L16.9212 5.32075L16.9212 5.32069C16.8721 5.13281 16.8641 4.93655 16.8978 4.74529ZM18.0438 5.0599C18.1485 5.0599 18.2489 5.01831 18.3229 4.94428C18.397 4.87025 18.4385 4.76984 18.4385 4.66515C18.4385 4.56046 18.397 4.46005 18.3229 4.38602C18.2489 4.31199 18.1485 4.2704 18.0438 4.2704C17.9391 4.2704 17.8387 4.31199 17.7647 4.38602C17.6906 4.46005 17.6491 4.56046 17.6491 4.66515C17.6491 4.76984 17.6906 4.87025 17.7647 4.94428C17.8387 5.01831 17.9391 5.0599 18.0438 5.0599Z" fill="#9E9E9E" stroke="#9E9E9E" stroke-width="0.0717726"/>
<path d="M13.6941 19.0554L13.6952 19.0902C13.7046 19.3841 13.6707 19.6778 13.5946 19.9619L13.3215 20.9817L13.2868 20.9725L13.3215 20.9817C13.0057 22.1607 12.9182 23.4464 13.5859 24.4526C14.0911 25.2126 14.7745 25.8375 15.5765 26.2729C16.3786 26.7083 17.2749 26.9409 18.1875 26.9504L18.223 26.9508V26.9863V27.704V27.7399H18.1871H16.4287V28.3859H19.7661V27.7399H18.9048H18.869V27.704V26.95V26.918L18.9008 26.9144C19.9918 26.7916 21.0209 26.3506 21.861 25.6485C21.3137 25.8459 20.7358 25.9466 20.153 25.9456C20.153 25.9456 20.1529 25.9456 20.1529 25.9456L20.153 25.9097C17.4949 25.9097 15.3162 23.834 15.3162 21.2445C15.3162 21.1493 15.354 21.058 15.4213 20.9907C15.4886 20.9234 15.5799 20.8856 15.6751 20.8856C15.7703 20.8856 15.8615 20.9234 15.9288 20.9907C15.9961 21.058 16.0339 21.1493 16.0339 21.2445C16.0339 23.4117 17.8649 25.192 20.153 25.192C21.418 25.192 22.5466 24.6461 23.3009 23.7906L13.6941 19.0554ZM13.6941 19.0554H13.6593M13.6941 19.0554H13.6593M23.7441 22.4768C23.7441 22.4768 23.7441 22.4768 23.7441 22.4767L23.7793 22.4836L23.7441 22.4768ZM23.7441 22.4768C23.8768 21.7964 24.0736 21.1108 24.4964 20.5528M23.7441 22.4768L24.4964 20.5528M13.6593 19.0554H12.4144C11.8069 19.0554 11.5028 18.3211 11.9324 17.8915L15.0136 14.8103C15.4432 14.3808 16.1775 14.6849 16.1775 15.2924V15.8615V15.8974H16.2134H16.705C17.332 15.8974 17.6265 16.6723 17.1577 17.0889L16.4328 17.7331L16.4115 17.7521L16.4252 17.7771L17.6166 19.9544C17.7987 20.2871 18.0797 20.555 18.4207 20.7211C18.7616 20.8872 19.1458 20.9433 19.52 20.8816L24.2265 20.1053C24.4773 20.064 24.6501 20.3501 24.4964 20.5528L24.4964 20.5528M13.6593 19.0554L24.4964 20.5528M24.525 20.5745C24.6983 20.3459 24.5035 20.0233 24.2207 20.0699L19.5142 20.8461C19.1473 20.9067 18.7707 20.8517 18.4364 20.6889C18.1021 20.526 17.8266 20.2633 17.6481 19.9371L16.4567 17.7599L17.1816 17.1158C17.675 16.6772 17.365 15.8615 16.705 15.8615L24.525 20.5745ZM16.0717 17.1312L16.0934 17.1707L16.127 17.1408L16.7289 16.6061L16.7994 16.5434H16.705H16.2134C16.0325 16.5434 15.8591 16.4715 15.7312 16.3437C15.6034 16.2158 15.5315 16.0424 15.5315 15.8615V15.2924V15.2057L15.4703 15.267L14.5214 16.2158L14.441 16.2963L14.553 16.2766C14.8325 16.2273 15.1204 16.2669 15.3761 16.3898C15.6319 16.5128 15.8427 16.7128 15.9788 16.9618L15.9788 16.9618L16.0717 17.1312ZM13.4525 17.3771L13.4722 17.2651L13.3917 17.3455L12.3891 18.3482L12.3278 18.4095H12.4144H13.5481H13.5945L13.5828 18.3646L13.4759 17.9526L13.4759 17.9525C13.4268 17.7646 13.4188 17.5684 13.4525 17.3771ZM14.5985 17.6917C14.7032 17.6917 14.8036 17.6501 14.8776 17.5761C14.9516 17.5021 14.9932 17.4017 14.9932 17.297C14.9932 17.1923 14.9516 17.0919 14.8776 17.0179C14.8036 16.9438 14.7032 16.9022 14.5985 16.9022C14.4938 16.9022 14.3934 16.9438 14.3194 17.0179C14.2453 17.0919 14.2037 17.1923 14.2037 17.297C14.2037 17.4017 14.2453 17.5021 14.3194 17.5761C14.3934 17.6501 14.4938 17.6917 14.5985 17.6917Z" fill="#9E9E9E" stroke="#9E9E9E" stroke-width="0.0717726"/>
</svg>
