<svg width="15" height="16" viewBox="0 0 15 16" fill="none" xmlns="http://www.w3.org/2000/svg">
<path d="M3.58821 6.09353L3.58918 6.12378C3.59735 6.37974 3.56783 6.6355 3.50157 6.88287L3.26376 7.77099L3.23357 7.76291L3.26375 7.77099C2.98877 8.79765 2.91259 9.91716 3.49397 10.7934C3.93389 11.4552 4.529 11.9994 5.22743 12.3786C5.92587 12.7577 6.70643 12.9602 7.50108 12.9685L7.53201 12.9689V12.9998V13.6248V13.656H7.50076H5.96951V14.2185H8.87576V13.656H8.12576H8.09451V13.6248V12.9682V12.9403L8.12226 12.9372C9.07225 12.8302 9.96839 12.4462 10.7 11.8349C10.2234 12.0067 9.72009 12.0944 9.21258 12.0935M3.58821 6.09353L12.0226 10.1585M3.58821 6.09353H3.55794H2.47388C1.94485 6.09353 1.68004 5.45407 2.0541 5.08L4.73723 2.39688C5.1113 2.02281 5.75076 2.28763 5.75076 2.81665V3.31228V3.34353H5.78201H6.21013C6.75607 3.34353 7.01259 4.01831 6.60437 4.38111L5.97312 4.94204L5.95452 4.95858L5.96647 4.98041L7.00397 6.87634C7.16253 7.16608 7.40719 7.3994 7.70412 7.54404C8.00105 7.68868 8.33559 7.7375 8.66147 7.68374L12.7599 7.0078C12.9783 6.97177 13.1288 7.22092 12.9949 7.39746L12.9949 7.39747C12.6267 7.88333 12.4553 8.48039 12.3398 9.07285M3.58821 6.09353L12.3704 9.07884M9.21258 12.0935L9.21263 12.0623V12.0935C9.21261 12.0935 9.2126 12.0935 9.21258 12.0935ZM9.21258 12.0935C6.88184 12.0935 4.96951 10.2732 4.96951 7.99978C4.96951 7.90861 5.00572 7.82118 5.07019 7.75671C5.13465 7.69225 5.22209 7.65603 5.31326 7.65603C5.40442 7.65603 5.49186 7.69225 5.55632 7.75671C5.62079 7.82118 5.65701 7.90861 5.65701 7.99978C5.65701 9.8686 7.23626 11.406 9.21263 11.406C10.3051 11.406 11.2794 10.9347 11.9304 10.1963L11.9539 10.217L11.9303 10.1964C11.9501 10.1737 11.9729 10.1538 11.998 10.1372M11.998 10.1372C11.9968 10.14 11.9955 10.1427 11.9942 10.1455L12.0226 10.1585M11.998 10.1372C12.0007 10.1354 12.0034 10.1337 12.0062 10.132L12.0226 10.1585M11.998 10.1372C12.1514 9.8012 12.2671 9.4445 12.3398 9.07285M12.0226 10.1585C12.1789 9.8179 12.2967 9.45603 12.3704 9.07884M12.3398 9.07285C12.3398 9.07285 12.3398 9.07286 12.3398 9.07286L12.3704 9.07884M12.3398 9.07285L12.3704 9.07884M10.8548 11.742C10.8265 11.7535 10.798 11.7648 10.7694 11.7757L10.7858 11.8029C10.809 11.7828 10.832 11.7625 10.8548 11.742ZM5.65867 4.41794L5.67753 4.4523L5.70683 4.42627L6.23089 3.96064L6.29235 3.90603H6.21013H5.78201C5.62453 3.90603 5.47351 3.84347 5.36216 3.73212C5.25081 3.62077 5.18826 3.46975 5.18826 3.31228V2.81665V2.74121L5.13491 2.79456L4.30866 3.62081L4.23858 3.69088L4.33618 3.67368C4.57953 3.63079 4.83021 3.66529 5.05293 3.77234C5.27564 3.87938 5.45918 4.05357 5.57771 4.27039L5.57773 4.27044L5.65867 4.41794ZM3.37778 4.63207L3.39494 4.53452L3.32491 4.60456L2.45178 5.47768L2.39844 5.53103H2.47388H3.46107H3.50147L3.49132 5.49193L3.39819 5.13318L3.39818 5.13313C3.35544 4.96952 3.34849 4.79861 3.37778 4.63207ZM4.37576 4.90603C4.46692 4.90603 4.55436 4.86981 4.61882 4.80535C4.68329 4.74088 4.71951 4.65345 4.71951 4.56228C4.71951 4.47111 4.68329 4.38368 4.61882 4.31921C4.55436 4.25475 4.46692 4.21853 4.37576 4.21853C4.28459 4.21853 4.19715 4.25475 4.13269 4.31921C4.06822 4.38368 4.03201 4.47111 4.03201 4.56228C4.03201 4.65345 4.06822 4.74088 4.13269 4.80535C4.19715 4.86981 4.28459 4.90603 4.37576 4.90603Z" fill="url(#paint0_linear_13601_45371)" stroke="#00681D" stroke-width="0.0625"/>
<defs>
<linearGradient id="paint0_linear_13601_45371" x1="2.03213" y1="8.15539" x2="13.115" y2="8.22335" gradientUnits="userSpaceOnUse">
<stop stop-color="#F9B420"/>
<stop offset="0.5" stop-color="#F7C02D"/>
<stop offset="1" stop-color="#98B130"/>
</linearGradient>
</defs>
</svg>
