<svg width="23" height="27" viewBox="0 0 23 27" fill="none" xmlns="http://www.w3.org/2000/svg">
<g clip-path="url(#clip0_13601_45416)">
<path d="M7.22938 9.40686L7.37625 9.39427C7.42943 9.38839 7.48029 9.36927 7.52417 9.33866L7.52313 9.33971C7.66371 9.8244 7.83576 10.3343 8.05083 10.8683C8.32674 11.567 8.59846 12.1408 8.9027 12.6948L8.86074 12.6108C8.83556 12.9927 8.80513 13.3851 8.76527 13.7648C8.7478 13.9889 8.70234 14.2099 8.62993 14.4226L8.63518 14.4038C8.62259 14.409 8.60475 16.5859 8.60475 16.5859C8.60514 17.2614 8.8328 17.917 9.25107 18.4474C9.66935 18.9778 10.2539 19.352 10.9107 19.5098L10.9317 19.514C10.9608 19.4382 11.0122 19.3731 11.079 19.327C11.1459 19.281 11.225 19.2562 11.3062 19.2559H11.9084C11.9888 19.257 12.0671 19.2817 12.1336 19.3271C12.2 19.3724 12.2516 19.4363 12.2819 19.5108L12.2829 19.514C12.9453 19.3608 13.5365 18.9886 13.9609 18.4576C14.3853 17.9266 14.6181 17.2678 14.6214 16.588V16.5869C14.6214 16.5869 14.5847 14.4195 14.5658 14.4048C14.5033 14.202 14.4604 13.9937 14.4378 13.7827L14.4367 13.7669C14.4 13.3851 14.3759 13.0021 14.3413 12.6129C14.6004 12.145 14.8721 11.5722 15.1113 10.9816L15.1512 10.8704C15.3663 10.3364 15.5331 9.82755 15.6789 9.34181C15.722 9.37242 15.7722 9.39155 15.8247 9.39741H15.8258L15.9737 9.41C16.152 9.42889 16.3094 9.28201 16.3241 9.05436L16.4835 7.02853V7.02643C16.4835 6.94491 16.4537 6.86621 16.3998 6.80501C16.346 6.74382 16.2717 6.70431 16.1908 6.69386H16.1709C16.3106 5.63898 16.2241 4.56643 15.917 3.54759L15.9307 3.6011C15.6348 2.94406 15.1847 2.36811 14.6187 1.92211C14.0527 1.47611 13.3875 1.17323 12.6795 1.03918L12.6522 1.03498C12.3089 0.966157 11.9604 0.926847 11.6104 0.91748H11.5884C11.2223 0.924036 10.8577 0.965489 10.4994 1.04128L10.5372 1.03498C9.82957 1.16633 9.16369 1.46528 8.5953 1.90681C8.02692 2.34834 7.57257 2.9196 7.27029 3.57277L7.25875 3.6011C6.95671 4.61601 6.87621 5.68396 7.0227 6.73268L7.0185 6.69386C6.93744 6.70264 6.86245 6.74098 6.80787 6.80155C6.7533 6.86213 6.72296 6.9407 6.72266 7.02223V7.02958L6.88212 9.0554C6.89681 9.28831 7.05627 9.42889 7.22833 9.41L7.22938 9.40686Z" fill="#243B25"/>
<path d="M22.8474 22.8146C22.774 19.6253 22.4551 18.9035 22.283 18.4146C22.2148 18.2184 22.1592 16.8923 19.9687 16.0321C18.6258 15.5033 16.8927 15.4928 15.4261 14.8728V16.5975C15.4245 17.4817 15.1156 18.3379 14.5521 19.0193C13.9886 19.7007 13.2057 20.1649 12.3375 20.3324L12.3134 20.3366C12.2976 20.4296 12.2497 20.5142 12.178 20.5756C12.1063 20.6369 12.0154 20.6711 11.921 20.6723H11.9021V21.9732C11.9021 22.5836 12.1446 23.1691 12.5763 23.6007C13.0079 24.0324 13.5934 24.2749 14.2039 24.2749C14.8143 24.2749 15.3998 24.0324 15.8314 23.6007C16.2631 23.1691 16.5056 22.5836 16.5056 21.9732V21.0646C16.1888 21.0182 15.8999 20.8572 15.6938 20.6122C15.4876 20.3672 15.3783 20.0551 15.3867 19.735C15.3951 19.4148 15.5205 19.1089 15.7392 18.875C15.9579 18.6411 16.2548 18.4954 16.5736 18.4656C16.8925 18.4358 17.2112 18.5239 17.4695 18.7131C17.7278 18.9024 17.9077 19.1798 17.9753 19.4928C18.0429 19.8058 17.9935 20.1328 17.8363 20.4118C17.6792 20.6908 17.4252 20.9025 17.1225 21.0069L17.113 21.0101V22.0225C17.113 22.7943 16.8064 23.5345 16.2606 24.0803C15.7149 24.6261 14.9746 24.9327 14.2028 24.9327C13.431 24.9327 12.6907 24.6261 12.145 24.0803C11.5992 23.5345 11.2926 22.7943 11.2926 22.0225V21.97V21.9721V20.6597C11.2027 20.6536 11.1176 20.6173 11.051 20.5567C10.9843 20.4962 10.9401 20.4149 10.9254 20.3261V20.324C10.0563 20.1582 9.27179 19.6954 8.70641 19.0148C8.14102 18.3342 7.8299 17.4782 7.82633 16.5934V14.855C6.35339 15.4876 4.60977 15.5002 3.25957 16.03C1.06274 16.8892 1.01238 18.2121 0.945238 18.4115C0.777381 18.9024 0.454256 19.6211 0.380819 22.8125C0.36823 23.2321 0.380819 23.8752 1.64604 24.4375C4.401 25.5181 7.95013 25.8538 11.4489 26.0951H11.7846C15.2907 25.8559 18.8346 25.5213 21.5875 24.4375C22.8474 23.8783 22.859 23.2394 22.8474 22.8156V22.8146ZM7.44551 21.5137H6.13832V22.8261H5.20461V21.5179H3.89743V20.5842H5.20461V19.277H6.13832V20.5842H7.44551V21.5137Z" fill="#243B25"/>
<path d="M17.4004 19.7583V19.7573C17.4002 19.5701 17.3258 19.3906 17.1933 19.2583C17.0609 19.126 16.8813 19.0517 16.6941 19.0518C16.5069 19.0518 16.3273 19.1262 16.195 19.2586C16.0626 19.391 15.9883 19.5706 15.9883 19.7578C15.9883 19.945 16.0626 20.1246 16.195 20.257C16.3273 20.3894 16.5069 20.4638 16.6941 20.4639C16.8813 20.4639 17.0609 20.3896 17.1933 20.2573C17.3258 20.125 17.4002 19.9455 17.4004 19.7583Z" fill="#243B25"/>
</g>
<defs>
<clipPath id="clip0_13601_45416">
<rect width="22.0312" height="25.1786" fill="white" transform="translate(0.378906 0.911133)"/>
</clipPath>
</defs>
</svg>
