<svg width="26" height="25" viewBox="0 0 26 25" fill="none" xmlns="http://www.w3.org/2000/svg">
<path d="M3.28181 5.72757C3.07342 5.72757 2.87357 5.80518 2.72622 5.94332C2.57887 6.08146 2.49609 6.26882 2.49609 6.46418C2.49609 6.65954 2.57887 6.8469 2.72622 6.98504C2.87357 7.12318 3.07342 7.20078 3.28181 7.20078H5.02609L7.08781 14.9352C7.26302 15.5907 7.88924 16.0401 8.60974 16.0401H18.4076C19.1171 16.0401 19.7197 15.5981 19.906 14.9573L21.9425 7.93739H20.2972L18.4068 14.5669H8.60895L6.54802 6.83248C6.46289 6.51517 6.26664 6.23382 5.9907 6.03349C5.71476 5.83316 5.37509 5.72544 5.02609 5.72757H3.28181ZM17.4247 16.0401C16.1322 16.0401 15.0675 17.0382 15.0675 18.2499C15.0675 19.4616 16.1322 20.4597 17.4247 20.4597C18.7172 20.4597 19.7818 19.4616 19.7818 18.2499C19.7818 17.0382 18.7172 16.0401 17.4247 16.0401ZM10.3532 16.0401C9.06074 16.0401 7.99609 17.0382 7.99609 18.2499C7.99609 19.4616 9.06074 20.4597 10.3532 20.4597C11.6457 20.4597 12.7104 19.4616 12.7104 18.2499C12.7104 17.0382 11.6457 16.0401 10.3532 16.0401ZM12.7104 5.72757V9.41061H10.3532L13.4961 12.357L16.639 9.41061H14.2818V5.72757H12.7104ZM10.3532 17.5133C10.7964 17.5133 11.139 17.8344 11.139 18.2499C11.139 18.6653 10.7964 18.9865 10.3532 18.9865C9.91009 18.9865 9.56752 18.6653 9.56752 18.2499C9.56752 17.8344 9.91009 17.5133 10.3532 17.5133ZM17.4247 17.5133C17.8678 17.5133 18.2104 17.8344 18.2104 18.2499C18.2104 18.6653 17.8678 18.9865 17.4247 18.9865C16.9815 18.9865 16.639 18.6653 16.639 18.2499C16.639 17.8344 16.9815 17.5133 17.4247 17.5133Z" fill="#243B25"/>
</svg>
