<svg width="16" height="16" viewBox="0 0 16 16" fill="none" xmlns="http://www.w3.org/2000/svg">
<path d="M14.5654 8.33353V8.3335C14.5654 7.25271 14.0738 5.77074 13.3301 4.55725C12.9589 3.95161 12.5282 3.41813 12.0702 3.03719C11.6115 2.65565 11.1334 2.4335 10.6654 2.4335C10.2308 2.4335 9.7874 2.62512 9.35841 2.95861C8.94972 3.27633 8.56013 3.71829 8.2124 4.22919C8.91573 4.81951 9.5435 5.74003 9.99963 6.71651C10.471 7.72568 10.7653 8.80793 10.7654 9.66667C10.7654 9.66672 10.7654 9.66678 10.7654 9.66683H10.6654C10.6668 10.565 10.3648 11.4361 9.81014 12.1397L14.5654 8.33353ZM14.5654 8.33353C14.5655 8.9225 14.4323 9.50386 14.1757 10.034C13.9191 10.5641 13.5457 11.0292 13.0836 11.3944C12.6215 11.7596 12.0827 12.0154 11.5077 12.1426C10.9846 12.2583 10.4438 12.2649 9.91908 12.1626L14.5654 8.33353ZM5.33203 13.5668C4.29769 13.5668 3.30571 13.1559 2.57431 12.4245C1.84292 11.6932 1.43203 10.7012 1.43203 9.66683C1.43203 8.58604 1.92363 7.10408 2.66729 5.89058C3.03845 5.28494 3.46925 4.75146 3.92723 4.37052C4.38593 3.98898 4.86395 3.76683 5.33203 3.76683C5.80011 3.76683 6.27813 3.98898 6.73683 4.37052C7.19482 4.75146 7.62561 5.28494 7.99677 5.89058C8.74043 7.10408 9.23203 8.58604 9.23203 9.66683C9.23203 10.7012 8.82114 11.6932 8.08975 12.4245C7.35836 13.1559 6.36638 13.5668 5.33203 13.5668Z" fill="url(#paint0_linear_13601_45381)" stroke="#00681D" stroke-width="0.2"/>
<defs>
<linearGradient id="paint0_linear_13601_45381" x1="1.55107" y1="7.93935" x2="14.7104" y2="8.04129" gradientUnits="userSpaceOnUse">
<stop stop-color="#F9B420"/>
<stop offset="0.5" stop-color="#F7C02D"/>
<stop offset="1" stop-color="#98B130"/>
</linearGradient>
</defs>
</svg>
