<svg width="15" height="16" viewBox="0 0 15 16" fill="none" xmlns="http://www.w3.org/2000/svg">
<path d="M5.81341 3.05596L5.61809 3.34374C6.02153 3.61762 6.41536 3.89284 6.71902 4.22168M5.81341 3.05596L6.64555 4.28952M5.81341 3.05596C6.22187 3.33274 6.63231 3.61561 6.97397 3.98567L6.97399 3.98568C7.06865 4.08817 7.15734 4.19805 7.23826 4.31584M6.71902 4.22168L6.64555 4.28952M6.71902 4.22168C6.71902 4.22168 6.71902 4.22168 6.71901 4.22167L6.64555 4.28952M6.71902 4.22168C6.80719 4.31715 6.88805 4.41712 6.96074 4.52357M6.64555 4.28952C6.73612 4.38758 6.81824 4.49005 6.89119 4.59926C6.91333 4.57302 6.93654 4.54777 6.96074 4.52357M6.96074 4.52357C6.97995 4.5517 6.99859 4.58029 7.01664 4.60937C6.99246 4.63449 6.96942 4.66078 6.9476 4.68816L7.29361 4.39959C7.2756 4.37123 7.25714 4.34332 7.23826 4.31584M6.96074 4.52357C7.04278 4.44151 7.13622 4.37153 7.23826 4.31584M10.1371 1.53954L10.0521 1.4902L10.1371 1.53953C10.1885 1.45096 10.2541 1.39091 10.336 1.35164C10.4194 1.31161 10.5251 1.29072 10.6589 1.28994L10.6583 1.18994L10.6588 1.28994C10.6767 1.28986 10.6949 1.2901 10.7136 1.29071L10.7136 1.29071C11.0105 1.30028 11.3803 1.4254 11.6805 1.61721C11.9826 1.81027 12.1878 2.0603 12.2396 2.23965C12.2672 2.33528 12.2701 2.40437 12.2419 2.47182C12.2121 2.54317 12.1406 2.6292 11.9804 2.73994C11.8454 2.8333 11.7091 2.92643 11.5721 3.02006C10.8632 3.50452 10.135 4.00215 9.46615 4.61256C9.29483 4.49939 9.10552 4.40494 8.90977 4.32873L8.87349 4.42191L8.90977 4.32873C8.85785 4.30851 8.80518 4.28959 8.75194 4.27208C9.00118 3.45357 9.44292 2.71065 9.8722 1.98868C9.96166 1.83822 10.0506 1.68867 10.1371 1.53954ZM7.9685 4.13935C7.74015 3.3043 7.78462 2.3938 8.02746 1.84525C8.19903 1.45783 8.3979 1.30984 8.62964 1.31171L8.63515 1.31181C8.77459 1.31436 8.98074 1.38388 9.24178 1.58406C9.23276 1.59909 9.22372 1.61417 9.21465 1.62928C8.77469 2.36273 8.27948 3.18832 8.00783 4.13942C7.99472 4.13926 7.98161 4.13924 7.9685 4.13935ZM4.63212 5.0893C5.00721 4.88366 5.39354 4.78426 5.78319 4.77904L5.79462 4.77889C6.0911 4.77637 6.39111 4.82852 6.69114 4.93144C6.65098 5.03048 6.62159 5.13631 6.60272 5.24871C5.98658 5.02105 5.40287 5.06138 4.80979 5.38713L4.63212 5.0893ZM7.32902 4.27142C7.24299 4.14481 7.14841 4.02715 7.04745 3.91783C6.68521 3.52549 6.24852 3.2298 5.82773 2.94487C5.81406 2.93562 5.80041 2.92637 5.78677 2.91714L7.32902 4.27142Z" fill="url(#paint0_linear_13601_45376)" stroke="#00681D" stroke-width="0.2"/>
<defs>
<linearGradient id="paint0_linear_13601_45376" x1="2.27807" y1="7.99833" x2="12.6477" y2="8.05045" gradientUnits="userSpaceOnUse">
<stop stop-color="#F9B420"/>
<stop offset="0.5" stop-color="#F7C02D"/>
<stop offset="1" stop-color="#98B130"/>
</linearGradient>
</defs>
</svg>
