<svg width="25" height="24" viewBox="0 0 25 24" fill="none" xmlns="http://www.w3.org/2000/svg">
<path d="M22.0303 14.4697L20 12.4395V9.75C19.9977 7.89138 19.3063 6.09964 18.0595 4.72124C16.8127 3.34284 15.0991 2.4757 13.25 2.2875V0.75H11.75V2.2875C9.90093 2.4757 8.18732 3.34284 6.94053 4.72124C5.69373 6.09964 5.00233 7.89138 5 9.75V12.4395L2.96975 14.4697C2.82909 14.6104 2.75004 14.8011 2.75 15V17.25C2.75 17.4489 2.82902 17.6397 2.96967 17.7803C3.11032 17.921 3.30109 18 3.5 18H8.75V18.5828C8.73369 19.5342 9.06905 20.4583 9.69184 21.1778C10.3146 21.8973 11.181 22.3617 12.125 22.482C12.6464 22.5337 13.1728 22.4757 13.6704 22.3117C14.1681 22.1478 14.6259 21.8815 15.0144 21.53C15.4029 21.1785 15.7136 20.7495 15.9264 20.2707C16.1392 19.792 16.2494 19.2739 16.25 18.75V18H21.5C21.6989 18 21.8897 17.921 22.0303 17.7803C22.171 17.6397 22.25 17.4489 22.25 17.25V15C22.25 14.8011 22.1709 14.6104 22.0303 14.4697ZM14.75 18.75C14.75 19.3467 14.5129 19.919 14.091 20.341C13.669 20.7629 13.0967 21 12.5 21C11.9033 21 11.331 20.7629 10.909 20.341C10.4871 19.919 10.25 19.3467 10.25 18.75V18H14.75V18.75ZM20.75 16.5H4.25V15.3105L6.28025 13.2803C6.42091 13.1396 6.49996 12.9489 6.5 12.75V9.75C6.5 8.1587 7.13214 6.63258 8.25736 5.50736C9.38258 4.38214 10.9087 3.75 12.5 3.75C14.0913 3.75 15.6174 4.38214 16.7426 5.50736C17.8679 6.63258 18.5 8.1587 18.5 9.75V12.75C18.5 12.9489 18.5791 13.1396 18.7197 13.2803L20.75 15.3105V16.5Z" fill="#243B25"/>
</svg>
