<svg width="26" height="26" viewBox="0 0 26 26" fill="none" xmlns="http://www.w3.org/2000/svg">
<g clip-path="url(#clip0_13601_45410)">
<path d="M12.9196 13.0179L3.84109 9.39139L4.40089 22.7537H1.96696L2.55111 8.86809L0.75 8.15008L12.9196 3.28223L25.0893 8.15008L12.9196 13.0179ZM12.9196 6.93312C12.2503 6.93312 11.7027 7.20085 11.7027 7.5416C11.7027 7.88235 12.2503 8.15008 12.9196 8.15008C13.589 8.15008 14.1366 7.88235 14.1366 7.5416C14.1366 7.20085 13.589 6.93312 12.9196 6.93312ZM12.9196 14.2349L19.6981 11.5211C20.5622 12.665 21.1585 14.0402 21.3532 15.5371C20.9881 15.4884 20.6109 15.4519 20.2214 15.4519C17.1182 15.4519 14.4043 17.1191 12.9196 19.6017C12.166 18.337 11.0969 17.2896 9.81696 16.5622C8.53701 15.8348 7.09009 15.4522 5.61786 15.4519C5.22843 15.4519 4.85117 15.4884 4.48608 15.5371C4.68079 14.0402 5.27711 12.665 6.14115 11.5211L12.9196 14.2349Z" fill="#243B25"/>
</g>
<defs>
<clipPath id="clip0_13601_45410">
<rect width="24.3393" height="24.3393" fill="white" transform="translate(0.75 0.848633)"/>
</clipPath>
</defs>
</svg>
